<svg width="120" height="57" viewBox="0 0 120 57" fill="none" xmlns="http://www.w3.org/2000/svg">
<g clip-path="url(#clip0_75_133)">
<path d="M60.0423 56.8421C45.0265 56.9151 30.5291 51.3685 19.4129 41.2976C8.29664 31.2267 1.36972 17.3635 2.71358e-06 2.44578C-0.000423849 2.31299 0.049454 2.18492 0.139573 2.08719C0.229692 1.98947 0.353435 1.9293 0.486113 1.91868C0.625391 1.90637 0.764113 1.94748 0.874059 2.03366C0.984005 2.11984 1.0569 2.24461 1.07787 2.38253C2.35908 17.0999 9.12479 30.8033 20.0392 40.7871C30.9537 50.7709 45.2237 56.3096 60.0318 56.3096C74.8398 56.3096 89.1098 50.7709 100.024 40.7871C110.939 30.8033 117.704 17.0999 118.986 2.38253C118.985 2.31316 118.999 2.24444 119.028 2.18107C119.056 2.1177 119.098 2.06116 119.15 2.01519C119.202 1.96923 119.263 1.93491 119.33 1.91463C119.396 1.89434 119.466 1.88852 119.535 1.89758C119.605 1.9054 119.672 1.92694 119.733 1.96095C119.794 1.99497 119.848 2.04082 119.891 2.09575C119.935 2.15068 119.967 2.2136 119.985 2.28093C120.004 2.34826 120.009 2.41862 120 2.48792C118.646 17.3966 111.735 31.2561 100.634 41.3278C89.5322 51.3995 75.0477 56.9507 60.0423 56.8843V56.8421Z" fill="#FECC00"/>
<path fill-rule="evenodd" clip-rule="evenodd" d="M88.0657 15.0117C88.0657 16.1924 89.2704 16.2556 90.7709 17.1201C91.7666 17.6553 92.7267 18.2539 93.6452 18.9122L92.3348 20.7676C91.9121 21.358 91.2993 21.9061 90.8343 22.4965L87.7064 25.7223C86.5229 26.6922 85.4451 27.7042 84.2404 28.5897C83.4585 29.2011 82.6765 29.7283 81.8945 30.2764L80.4152 31.1619C76.8275 33.2212 72.9422 34.7147 68.897 35.5896C67.5233 35.8215 66.213 36.0745 64.7759 36.2432C63.7614 36.2432 62.7892 36.4329 61.7748 36.4329C61.4155 36.4329 61.3521 36.5383 60.9928 36.5383C56.8015 36.609 52.6222 36.0692 48.5871 34.936C45.4759 34.06 42.4815 32.8141 39.6684 31.2252C39.366 31.0059 39.0482 30.8086 38.7174 30.6348L38.2313 30.3186C37.3859 29.8547 36.604 29.2433 35.8431 28.7794C35.0823 28.3156 34.6385 27.8096 34.0467 27.3458C33.8971 27.2605 33.7555 27.1617 33.624 27.0506C33.4911 26.922 33.35 26.8023 33.2014 26.6922L30.623 24.3518C29.3125 23.0459 28.1109 21.6357 27.0301 20.135C26.7789 19.8322 26.579 19.4903 26.4384 19.1231C27.4313 18.3981 28.4689 17.7361 29.5451 17.1412C30.3905 16.6562 31.9967 16.4243 31.9967 15.4755C31.9321 14.6921 31.6861 13.9343 31.2781 13.2618C31.176 12.9629 31.0338 12.6792 30.8554 12.4184C30.8554 12.1232 30.623 11.8913 30.4962 11.5329C29.8892 10.3932 29.4073 9.19146 29.059 7.94858C28.4039 6.02994 27.8755 4.04806 27.3261 2.15051C27.2438 1.49228 27.0203 0.859518 26.6709 0.295186C26.2482 0.400605 26.0791 0.822249 25.8889 1.11742C25.698 1.49334 25.5763 1.9004 25.5296 2.31922C25.2888 3.06461 24.9475 3.7739 24.5152 4.42761C23.9023 5.39746 22.9512 6.93658 22.4018 7.84318C21.8523 8.74979 22.4017 8.56004 19.8868 7.71668C18.2843 7.16914 16.7409 6.46282 15.2795 5.6083C14.6878 5.18662 14.1383 4.46979 14.1383 6.09325C14.1771 6.67709 14.343 7.24544 14.6244 7.75883C15.2267 9.39388 15.707 11.0711 16.0615 12.7768C16.4208 13.9153 17.076 15.6442 17.4987 16.7195C17.9099 17.4439 18.2496 18.2066 18.5131 18.9966C18.2627 19.1179 18.0225 19.2589 17.7945 19.4182L17.076 19.7767C16.5135 19.9988 15.9339 20.175 15.3429 20.3038C14.1383 20.7254 13.2295 21.1471 12.9971 22.5175V22.9392C13.3832 23.9753 13.9326 24.9432 14.6244 25.8066C15.2161 26.7132 15.829 27.5355 16.4842 28.4421C17.1424 29.3162 17.8479 30.1538 18.5976 30.9511L19.9713 32.4481C20.0981 32.5535 20.0981 32.6167 20.2249 32.7432L21.958 34.4721C22.2377 34.7696 22.5341 35.0512 22.8456 35.3155L24.3461 36.6859C24.8956 37.2341 25.6142 37.698 26.2059 38.1829C27.2737 39.0675 28.396 39.8842 29.5663 40.6286C30.0524 40.987 30.4539 41.2401 30.94 41.5352C39.2267 46.893 48.8578 49.8157 58.7314 49.9688H60.1686C66.231 49.9221 72.2439 48.8748 77.9636 46.8694C81.0193 45.8354 83.9701 44.5153 86.7766 42.9268L91.0034 40.228C92.4151 39.3587 93.7449 38.3638 94.9766 37.2552L95.9277 36.475C97.2531 35.3348 98.5093 34.1169 99.6895 32.8276L101.084 31.2673C101.803 30.3818 102.691 29.412 103.473 28.4C104.255 27.3879 105.396 25.7223 106.283 24.3308C106.726 23.8361 106.981 23.2016 107.002 22.5386C107.021 22.2488 106.972 21.9586 106.858 21.6912C106.744 21.4239 106.569 21.187 106.347 20.9995C104.741 19.9242 103.768 20.2194 102.268 19.2496C101.148 18.596 101.444 19.4393 102.817 15.855C102.987 15.3068 103.24 14.8852 103.409 14.3581C104.191 12.2497 104.191 11.1955 104.783 9.40337C105.286 8.39 105.669 7.32161 105.924 6.21975C105.924 5.92457 105.924 4.97581 105.628 4.97581C105.332 4.97581 104.973 5.33423 104.783 5.5029C103.305 6.36772 101.739 7.07443 100.112 7.61129C97.7241 8.39139 97.9988 8.39139 97.6607 7.80104L95.5473 4.34325C95.1207 3.6863 94.7798 2.9778 94.5328 2.23487C94.4323 1.61738 94.2018 1.02813 93.8565 0.505973C93.8565 0.337302 93.6874 0.210835 93.4549 0.147583C92.9688 0.442757 92.9055 1.34937 92.7153 2.00297C91.9545 4.63846 91.2782 7.21067 90.2637 9.76182C89.3847 11.5008 88.6427 13.3054 88.0446 15.1593L88.0657 15.0117ZM58.964 20.7465C58.964 21.0417 58.964 20.7465 58.964 20.9785C58.964 21.2104 59.133 20.9784 59.1964 20.6832C59.2598 20.3881 59.1964 20.6833 58.964 20.5568C58.7315 20.4302 58.964 20.5567 58.964 20.7465ZM92.7787 8.09618C92.9689 8.09618 92.9689 8.09621 93.0323 7.86429C93.0957 7.63236 93.138 7.63233 93.0323 7.56908C92.9266 7.50583 92.7998 7.86426 92.8421 8.09618H92.7787ZM27.3683 8.09618C27.3683 7.99076 27.3683 7.99079 27.3683 7.80104C27.3683 7.61128 27.3683 7.63233 27.0725 7.63233C26.7766 7.63233 27.0724 8.03293 27.3683 8.09618ZM75.0471 21.6109C75.0471 21.8429 75.0471 21.9061 75.2373 21.9694C75.4275 22.0326 75.4064 21.9693 75.4064 21.7796C75.4064 21.5898 75.2373 21.5477 75.0471 21.6109ZM71.3486 16.8882C71.5176 17.0569 71.581 17.0568 71.9403 17.0568C72.2996 17.0568 71.9404 16.8882 71.7713 16.6984L71.3486 16.8882ZM94.5962 10.7949C94.5962 10.9214 94.5962 10.7949 94.5962 10.9214C94.6986 10.8869 94.788 10.822 94.8522 10.7353C94.9165 10.6486 94.9525 10.5443 94.9555 10.4365C94.9555 10.2046 94.9555 10.4365 94.9555 10.2468C94.8498 10.3733 94.5962 10.563 94.5962 10.7949ZM25.3605 11.0269C25.593 11.0269 25.4662 10.8582 25.3605 10.7317C25.2549 10.6052 25.3606 10.4365 25.0013 10.4365C25.0013 10.6052 25.1281 11.0269 25.3183 11.0269H25.3605ZM48.9041 20.62C48.9041 21.2103 49.4324 20.9152 49.4324 20.7465C49.4324 20.5778 48.9041 20.3248 48.9041 20.62ZM54.9484 17.8791V17.9845C55.667 18.3008 55.7304 17.5628 55.3077 17.5628C55.2633 17.56 55.2187 17.5659 55.1766 17.5803C55.1345 17.5946 55.0956 17.6171 55.0622 17.6465C55.0289 17.6759 55.0016 17.7116 54.9821 17.7515C54.9625 17.7914 54.9511 17.8348 54.9484 17.8791ZM19.9079 11.7226C20.2038 11.7226 19.9079 11.069 19.9079 11.0058C19.9079 10.9425 19.908 10.8793 19.6755 10.8793C19.5487 11.2377 19.8445 11.7226 19.9713 11.7226H19.9079ZM100.408 11.7226C100.408 11.4274 100.725 11.1323 100.598 10.816C100.366 10.816 100.408 10.816 100.366 11.0058C100.324 11.1955 100.049 11.6594 100.366 11.7226H100.408ZM43.1556 22.8338C43.439 22.9388 43.7417 22.982 44.0432 22.9603C44.3391 22.9603 44.2334 22.4754 44.0432 22.4754C43.8678 22.4594 43.691 22.4833 43.5263 22.5454C43.3615 22.6075 43.2131 22.7061 43.0922 22.8338H43.1556ZM43.3881 20.3881C43.9798 20.3881 44.6984 20.7465 44.6984 20.3881C44.6984 20.0297 43.5571 20.2194 43.3881 20.3881ZM70.8625 16.1713V16.2978C71.3486 16.4243 72.1728 16.6563 72.1728 16.2978C72.1728 15.9394 71.2218 16.1292 70.8625 16.1713ZM65.5367 18.3851C65.5367 18.87 66.1284 19.0598 66.1918 18.3851C66.065 18.2797 66.0651 18.2797 65.8326 18.2797C65.6001 18.2797 65.8326 18.0267 65.8326 17.858C65.8326 17.6893 65.5367 17.7315 65.5367 18.3219V18.3851ZM70.7357 15.581C71.1879 15.7765 71.6819 15.8562 72.1728 15.8129C72.1728 15.581 72.1728 15.7074 72.1728 15.4544C71.6901 15.4078 71.2028 15.4507 70.7357 15.581ZM61.5212 16.5297C61.5212 16.8882 62.113 17.0779 62.4088 16.5297V16.4243C62.2398 16.2346 62.4088 16.2978 61.8805 16.2978C61.3521 16.2978 61.648 16.4243 61.5846 16.5297H61.5212ZM80.542 19.5869C80.542 19.8821 80.9012 19.8188 81.2605 19.8188C81.6198 19.8188 81.6832 19.4182 81.2605 19.355C80.8378 19.2917 80.4786 19.355 80.4786 19.5869H80.542ZM74.9837 20.7887C74.9837 21.5056 75.4486 21.2525 75.4486 21.0206C75.4486 20.7887 75.4487 20.135 75.0894 20.135C75.0112 20.3438 74.9753 20.566 74.9837 20.7887ZM25.1281 14.4635C25.4874 14.3581 25.3817 14.1683 25.1281 13.6412C24.9477 13.3135 24.7276 13.009 24.4729 12.7347C24.5351 13.2208 24.7009 13.6881 24.959 14.1051C25.0858 14.2948 24.959 14.3581 25.1915 14.4635H25.1281ZM48.0164 16.5719C47.4669 16.5719 47.5303 17.1623 48.0164 17.1623C48.5025 17.1623 48.5448 16.2135 48.0164 16.087V16.5719ZM65.579 16.9303C65.579 17.6472 66.0439 17.6894 66.0439 16.5719C66.0439 16.2557 66.0439 16.1502 65.8748 16.1502C65.7057 16.1502 65.579 16.6141 65.579 16.9303ZM27.0513 11.3642C27.0513 11.069 26.7554 10.4787 26.6286 10.0992C26.5018 9.71966 26.6286 9.93047 26.4595 9.80397C26.2905 9.67746 26.2059 10.0991 26.4595 10.6473C26.5064 10.8121 26.5628 10.974 26.6286 11.1323C26.8188 11.4274 26.8188 11.3642 27.0513 11.3642ZM61.1408 15.855C61.3733 16.2135 62.0284 16.0237 62.3877 15.9605V15.6653C62.0284 15.4966 61.2465 15.4333 61.1408 15.855ZM93.6663 9.69857C93.4338 9.80399 93.3704 10.2257 93.307 10.4787C93.2436 10.7317 92.8844 11.3642 93.307 11.1955C93.7297 11.0268 93.8565 10.2889 93.9199 10.057C93.9833 9.82504 93.9199 9.74074 93.7297 9.69857H93.6663ZM94.7441 14.2948C95.1034 14.2948 95.04 14.2948 95.3359 13.6412C95.4448 13.4935 95.5303 13.3299 95.5895 13.1563C95.625 13.0729 95.6432 12.9833 95.6432 12.8927C95.6432 12.8022 95.625 12.7126 95.5895 12.6292C95.1405 13.0917 94.8263 13.6676 94.6807 14.2948H94.7441ZM63.9516 30.5505C63.9516 31.2673 64.5434 31.2041 64.5434 30.7192C64.5434 30.2343 64.5434 29.8336 64.1841 29.8336C63.8248 29.8336 63.9516 30.3186 63.9516 30.5505ZM79.4641 20.4514C79.5909 20.62 79.7177 20.5778 80.2461 20.62C80.3729 20.62 81.5564 20.9363 81.5564 20.5146C81.5564 20.0929 80.9012 20.3881 80.1193 20.3881C79.76 20.3881 79.76 20.3881 79.4641 20.3881V20.4514ZM53.9974 16.9303C55.1387 16.9303 55.6881 17.2888 55.6881 16.7617C55.6881 16.2346 54.4201 16.7617 53.9974 16.8882V16.9303ZM42.6906 21.1471V21.3158H43.6417C44.1278 21.3158 44.4236 21.3158 44.4236 21.0206C44.4236 20.7254 43.8741 20.8519 43.6417 20.8941C43.3206 20.9625 43.0032 21.0469 42.6906 21.1471ZM42.2679 21.9694C42.437 22.2224 42.5004 21.9694 43.1133 22.0959H44.1911C44.487 22.0959 44.5927 21.4423 43.0499 21.8007L42.2679 21.9694ZM90.7287 20.0086C90.7287 20.1351 90.7287 20.0086 90.7287 20.2405C91.2148 20.4303 91.3838 20.0086 91.4472 19.8188C91.456 19.6537 91.4054 19.4908 91.3047 19.3595C91.2041 19.2281 91.0598 19.1368 90.8977 19.102C90.7447 19.3797 90.6648 19.6916 90.6653 20.0086H90.7287ZM40.2813 18.9966C39.9855 18.9966 40.0489 18.8701 39.8164 18.7436C39.4571 19.5869 40.704 19.8188 40.704 19.102C40.6938 18.914 40.6253 18.7339 40.5079 18.5865C40.3905 18.4392 40.2301 18.332 40.0488 18.2797C40.2013 18.4876 40.2829 18.7389 40.2813 18.9966ZM39.753 16.7195C39.753 17.0779 39.7529 17.2466 40.1122 17.3098C40.4715 17.3731 40.3447 17.0779 40.3447 16.2346C40.3447 15.7075 39.753 15.7074 39.753 16.7195ZM79.6543 22.0959C79.8234 22.2857 80.3095 22.3278 80.6688 22.391C81.028 22.4543 81.6198 22.3911 81.6198 22.1591C81.6198 21.9272 81.1548 21.9694 80.7956 21.9694C80.4363 21.9694 80.0136 21.864 79.6543 22.0959ZM53.4057 16.1291C53.4057 16.2978 53.5958 16.1291 53.8917 16.1291C54.9061 16.1291 55.6247 16.3822 55.6247 15.8972C55.6247 15.4123 54.6103 15.7075 54.3567 15.7707L53.4057 16.1291ZM59.0908 18.6381C59.2176 18.6381 59.0907 18.6381 59.4078 18.6381V18.9544C58.9851 18.9544 59.2809 18.9544 58.9216 18.8279C58.499 19.608 59.8727 19.7134 59.8727 18.8279C59.8727 17.9423 59.8727 18.2797 59.45 18.2165C59.0273 18.1532 59.1542 18.2165 59.0908 18.4695V18.6381ZM28.7209 19.9453C28.7209 20.4935 29.4395 21.0206 29.5663 19.9453C29.5663 19.7555 29.6931 19.2285 29.3761 19.2285C29.2023 19.2285 29.0357 19.2973 28.9128 19.4199C28.7899 19.5425 28.7209 19.7087 28.7209 19.8821V19.9453ZM78.9991 20.9573C79.1695 21.0849 79.3779 21.1518 79.5909 21.1471C79.8082 21.1774 80.0287 21.1774 80.2461 21.1471C80.6976 21.2414 81.1586 21.2839 81.6198 21.2736C81.6537 21.1781 81.6537 21.0739 81.6198 20.9785C80.7432 20.7535 79.8297 20.7105 78.9357 20.852L78.9991 20.9573ZM47.784 19.102C47.7625 19.3321 47.7987 19.564 47.8896 19.7767C48.1432 20.3038 48.6082 19.9453 48.6082 19.6502L48.4391 18.9333C48.2489 18.0267 47.784 18.4484 47.784 19.102ZM22.8879 15.2225C23.0781 14.9274 22.5286 14.2105 22.2327 13.5569L21.345 11.9967C21.5963 13.0453 21.9947 14.0532 22.5286 14.9906C22.6554 15.1593 22.5286 15.2225 22.8879 15.2225ZM26.8399 14.8641C27.0302 14.6743 27.0302 14.6744 26.8399 14.4424L26.6709 14.084L25.8889 12.4817C25.7941 12.1855 25.6271 11.9173 25.4028 11.7015C25.6029 12.5714 25.908 13.4139 26.3116 14.2105C26.4173 14.5057 26.4807 14.7376 26.7765 14.8641H26.8399ZM93.0957 14.6743C93.4127 14.6743 93.4127 14.6743 93.6452 14.2105C94.0625 13.3934 94.3817 12.53 94.5962 11.6383C94.3637 11.6383 94.4906 11.6383 94.3637 11.8702L93.8354 13.072C93.6496 13.3052 93.5064 13.5693 93.4127 13.8521C93.2256 14.0876 93.115 14.3744 93.0957 14.6743ZM97.3225 15.1593C97.555 15.0328 97.5127 15.0328 97.555 14.8641L98.1679 13.6623C98.2736 13.4304 98.4004 13.1985 98.5272 12.8823C98.654 12.566 98.7596 12.2286 98.823 11.9335H98.6328L97.2591 14.7376C97.2591 14.9906 97.2591 14.9274 97.2591 15.1593H97.3225ZM37.6606 25.385C38.0833 25.6169 38.1256 25.6801 38.3158 25.0898C38.4624 24.8115 38.5214 24.4955 38.4849 24.1832C38.4849 23.888 37.8297 22.9392 37.724 24.3729L37.6606 25.385ZM75.1528 16.9514C75.0451 17.6501 75.0451 18.3611 75.1528 19.0598C75.1528 19.3128 75.1528 19.4182 75.4698 19.4815C75.4698 19.1863 75.5754 18.8279 75.6388 18.5327V18.0478C75.6388 17.4996 75.829 18.0478 75.829 17.3309C75.829 16.9092 75.512 16.9092 75.2162 16.9725L75.1528 16.9514ZM58.8582 16.1081C59.4711 16.2346 59.3443 16.7195 59.1119 16.7195C58.8794 16.7195 59.1119 16.3611 58.5624 16.3611C58.5177 16.5339 58.5177 16.7153 58.5624 16.8882C58.5873 16.9959 58.6499 17.0912 58.7391 17.1569C58.8282 17.2227 58.9379 17.2544 59.0485 17.2466C59.3443 17.2466 59.9995 16.7195 59.9995 16.4665C60.0127 16.349 59.9936 16.2301 59.9444 16.1226C59.8952 16.015 59.8176 15.9228 59.7201 15.8557C59.6225 15.7887 59.5085 15.7493 59.3902 15.7417C59.2719 15.7342 59.1538 15.7588 59.0485 15.8129C58.8582 15.9394 58.9216 15.8129 58.9216 16.1081H58.8582ZM98.337 16.1081L99.0555 14.7165C99.4481 13.8887 99.7869 13.0365 100.07 12.1653H99.9009C99.7607 12.5127 99.5984 12.8508 99.4148 13.1774L98.4004 15.2858C97.9777 16.0026 97.9143 15.9394 98.4004 16.1924L98.337 16.1081ZM28.5941 15.2647C29.1859 15.2647 28.4039 14.2527 28.0446 13.4726L27.3895 12.0389C27.3895 11.8069 27.3894 11.6805 27.0935 11.6805C26.8611 12.0389 28.108 14.3159 28.3405 14.843C28.3405 15.0328 28.3405 15.2647 28.5941 15.2647ZM91.3627 15.0328C91.3627 15.0328 91.6163 15.328 91.8488 14.7798C91.8488 14.6111 91.9756 14.5478 92.039 14.3581L92.8632 12.5659C93.0363 12.2322 93.1372 11.8659 93.1591 11.4907C92.7998 11.4907 92.9266 11.4907 92.5673 12.2708L91.3627 15.0328ZM96.287 14.6743C96.7731 14.5478 97.4916 12.566 97.5973 11.9756L97.8509 11.1955C97.8509 11.0268 97.8509 11.1955 97.8509 11.0269L96.287 14.2527C96.1602 14.4846 96.1602 14.5478 96.287 14.6743ZM21.8734 16.2135C22.0636 16.2135 22.0636 16.2134 22.127 15.9815C22.0308 15.6473 21.8886 15.328 21.7044 15.0328L20.7322 13.2406C20.5597 12.9044 20.4045 12.5596 20.2672 12.2076C20.6573 13.606 21.218 14.9514 21.9368 16.2135H21.8734ZM23.9868 14.7165C23.9535 14.3741 23.8296 14.0466 23.6276 13.7677C23.5224 13.4368 23.3806 13.1186 23.2049 12.8189C23.0333 12.5348 22.8984 12.2302 22.8033 11.9124C22.6765 11.6804 22.4863 11.1955 22.2539 11.0901C22.3868 11.8166 22.6067 12.5244 22.909 13.1985C23.0326 13.5016 23.1737 13.7972 23.3317 14.084C23.4313 14.2341 23.5096 14.3973 23.5642 14.5689C23.7544 14.8009 23.6909 14.8008 23.9868 14.7376V14.7165ZM89.6508 15.4334C90.0735 15.4334 90.2425 14.7798 90.5596 14.2527C91.0274 13.2772 91.4436 12.2778 91.8065 11.2588C92.0506 10.7348 92.194 10.1698 92.2292 9.59311L89.7776 14.7165C89.524 15.2015 89.4817 15.2015 89.6508 15.4334ZM27.7699 9.50883C28.0166 10.6592 28.3777 11.7822 28.8477 12.8612C29.0802 13.325 29.3338 13.8099 29.5663 14.337C29.7988 14.8641 30.158 15.834 30.5173 15.4755C30.8766 15.1171 30.4116 15.0117 30.2848 14.7587L29.207 12.6503C28.8032 11.6045 28.3229 10.5897 27.7699 9.61422V9.50883ZM20.4363 17.3309C20.6688 17.3309 20.5631 17.3309 20.7322 17.1623C20.6927 17.0356 20.6358 16.9149 20.5631 16.8038C20.0136 15.9605 18.4497 12.1443 17.9847 11.2377L17.7523 10.8793C18.2333 12.887 18.9945 14.8175 20.0136 16.6141C20.1015 16.8804 20.2456 17.1249 20.4363 17.3309ZM99.3302 17.0357C99.3302 17.2044 99.5205 17.2044 99.6895 17.2044C99.7704 17.095 99.8345 16.9742 99.8797 16.846L100.408 15.7707C101.287 14.2341 101.895 12.5581 102.205 10.816C102.035 11.0058 101.613 12.1443 101.486 12.3762C101.084 13.3882 100.598 14.4846 100.112 15.4755C99.9855 15.7285 99.3302 16.9092 99.3302 17.0357ZM21.8734 28.6952C22.132 29.0509 22.4378 29.37 22.7822 29.6439C22.9089 29.6304 23.0299 29.5845 23.1336 29.5106C23.2373 29.4368 23.3201 29.3374 23.374 29.2223L23.9023 28.7584L26.1214 26.65C26.3174 26.5113 26.5013 26.3561 26.6709 26.1862C27.5163 25.4693 27.3261 25.7012 26.7977 25.0476C26.6855 24.8632 26.5425 24.6992 26.375 24.5627C26.0791 24.5627 26.0157 24.7946 25.7621 24.9844L22.9513 27.5566C22.7822 27.7253 21.8734 28.4421 21.8734 28.6318V28.6952ZM60.6969 40.0382C60.6969 41.4298 60.697 41.0081 62.1975 41.0081C62.1975 41.472 62.1975 41.725 62.1975 42.1888L62.3665 45.3092C62.3665 45.8995 62.3666 45.773 63.381 45.773C64.0996 45.773 63.867 45.4146 63.867 44.2972L63.6346 41.5352V40.8816C65.2408 40.8816 65.0083 40.8816 65.0083 40.0382C65.0083 39.1949 64.7758 39.6166 64.2264 39.6166L61.7114 39.7431C61.3521 39.7431 60.6335 39.743 60.6335 40.0382H60.6969ZM98.0833 23.1711L96.0967 22.5808C95.4415 22.3278 95.5684 22.5808 94.9555 23.2344C94.8347 23.3826 94.7742 23.5708 94.7864 23.7615C95.2967 23.9247 95.8199 24.0446 96.3504 24.1199C97.2797 24.3042 98.1971 24.5435 99.0978 24.8368C100.598 25.9753 100.408 26.1651 101.021 25.385C101.634 24.6049 101.613 24.8368 100.176 23.8247C99.962 23.6837 99.7758 23.5051 99.6261 23.2976L98.1467 20.4724C98.0398 20.3956 97.9528 20.2945 97.8931 20.1773C97.5972 19.5869 97.4705 19.9453 97.0055 20.5989C96.5406 21.2525 96.8153 21.0206 97.0055 21.4423C97.1957 21.864 97.3648 22.0326 97.4705 22.2645C97.6721 22.5553 97.8555 22.858 98.0199 23.1711H98.0833ZM34.406 38.8365C34.406 39.1317 35.4205 39.5533 35.5895 39.5955L36.7941 37.4871C37.09 37.4871 37.4493 37.7823 37.6818 37.9088C37.8531 37.9651 38.0165 38.043 38.1679 38.1407C38.7597 38.4991 38.823 38.3304 39.1823 37.6768C39.3091 37.3817 39.1824 37.3184 38.8231 37.0654L37.4493 36.3064C37.6239 36.021 37.7657 35.7169 37.872 35.3998C38.2947 35.3998 39.5416 36.3064 39.9854 36.3485C40.2631 36.1112 40.4743 35.8062 40.5983 35.4631C40.5983 35.2311 39.3302 34.6829 39.0344 34.451C38.4763 34.1315 37.8973 33.8498 37.3014 33.6077C37.0247 34.0072 36.7843 34.4306 36.5828 34.8727C36.3926 35.2311 34.4694 38.5624 34.4694 38.8154L34.406 38.8365ZM77.4775 36.3064C77.5112 36.5573 77.59 36.8002 77.71 37.0232C78.3017 38.1618 78.9781 39.8485 79.6332 41.0924C79.8657 41.5773 79.6332 41.5773 79.9925 41.746C80.3517 41.9147 80.5208 41.5774 80.7744 41.4509L83.226 40.2491C83.226 40.0172 82.9301 39.2371 82.7399 39.2371C82.5497 39.2371 81.0703 40.0172 80.7744 40.0172C80.6476 39.6588 80.3518 39.1738 80.2884 38.8786L81.5353 38.2883C81.7889 38.2883 81.958 38.1618 81.958 37.9298L81.7889 37.5082C81.493 36.9811 81.5352 36.9179 80.5842 37.3817C80.2987 37.543 80.0021 37.6838 79.6966 37.8033C79.6966 37.3817 79.3373 37.0233 79.3373 36.7281L80.711 36.1378C81.3028 35.8426 81.1337 35.9058 80.8801 35.2944C80.8801 34.9992 80.8801 34.9992 80.5842 34.8305C79.5215 35.2635 78.4843 35.7563 77.4775 36.3064ZM88.0446 29.9812C88.0446 30.2132 88.7209 30.93 88.89 31.1619L90.3905 32.9119C90.623 33.1439 91.7008 34.5775 91.9544 34.5775C92.4775 34.2569 92.96 33.8747 93.3915 33.439C94.575 32.3005 94.9343 32.5535 94.3426 31.7734C93.7508 30.9933 93.8565 31.2884 93.0745 32.0685L92.673 32.3637C92.5556 32.4919 92.4113 32.5927 92.2503 32.6589C91.9359 32.3732 91.6525 32.0552 91.4049 31.7101C91.5317 31.7101 92.4194 30.8668 92.673 30.6981C92.9266 30.5294 92.673 30.2132 92.356 29.8547C92.039 29.4963 92.0601 29.5595 91.4049 30.2131L90.5596 30.8035C90.5596 30.6349 90.0946 30.2764 89.9044 29.9812C90.4558 29.5836 90.9593 29.1237 91.4049 28.6108C91.4049 28.4843 91.1725 28.2524 91.1091 28.1259C91.0457 27.9993 90.8766 27.409 89.672 28.5476L89.376 28.8427C88.9079 29.193 88.4632 29.5733 88.0446 29.9812ZM28.5096 34.7673C28.5096 34.9359 28.9322 35.1678 29.1647 35.3576L31.0245 36.7281C31.4895 37.0865 31.5529 36.8546 31.7431 36.5594C31.9333 36.2642 32.1658 36.0112 31.7431 35.7161L30.4116 34.704C30.677 34.3857 30.9172 34.0474 31.1302 33.692C31.6424 34.0941 32.1866 34.4537 32.7575 34.7673C33.0199 34.5231 33.2412 34.2383 33.4127 33.9239C32.9801 33.4632 32.4728 33.0783 31.9121 32.7854C32.1024 32.4269 32.3348 32.1318 32.5251 31.8366C32.8289 31.9895 33.107 32.1887 33.3493 32.427C33.6307 32.6431 33.9355 32.827 34.2581 32.9752C34.5344 32.7191 34.757 32.411 34.9132 32.0685C34.2386 31.5094 33.533 30.9885 32.7998 30.5083C31.8276 29.7282 32.1446 29.8547 31.109 31.1619L30.2848 32.3637C29.6318 33.1231 29.0316 33.9262 28.4884 34.7673H28.5096ZM50.4257 44.6767C50.4257 44.9086 50.9118 44.9086 51.2077 44.9718L53.1309 45.267C53.4234 45.3297 53.726 45.3297 54.0186 45.267C54.3778 43.8966 54.3144 44.1285 53.1943 43.9599C52.8205 43.862 52.4385 43.7985 52.053 43.7701C52.053 43.6647 52.1587 43.243 52.2221 43.0533C52.2855 42.8635 52.1164 42.4629 52.518 42.5262C54.3144 42.8213 54.1453 43.0111 54.3144 42.1045C54.4835 41.1979 54.0819 41.6828 52.4757 41.3244C52.501 40.9409 52.5575 40.5601 52.6448 40.1858C53.2777 40.3356 53.9204 40.4412 54.568 40.5021C54.8639 40.5021 54.8639 39.4057 54.8639 39.4057C54.8639 39.4057 54.5046 39.2371 54.2722 39.2371C54.0552 39.1584 53.8267 39.1156 53.5959 39.1105L51.4824 38.7521C51.1866 38.7521 51.1865 38.9419 51.1865 39.2371C51.1865 39.5323 50.3412 44.1285 50.3412 44.6135L50.4257 44.6767ZM18.1961 23.9934C18.3025 24.2002 18.4458 24.386 18.6188 24.5416C18.7434 24.7663 18.9081 24.9664 19.1048 25.132C19.6332 24.8368 20.4786 23.9934 20.7744 23.9934C21.0703 23.9934 21.9791 25.6801 22.8879 25.6801C23.0417 25.6942 23.1969 25.6752 23.3428 25.6243C23.4886 25.5733 23.6218 25.4918 23.7332 25.385C24.9379 24.4784 25.8467 23.9302 24.2193 21.8429L23.6698 21.126C23.0147 20.1772 23.1837 20.114 21.7466 21.2525L19.4218 23.0446C19.0625 23.3398 18.5765 23.635 18.2172 23.9934H18.1961ZM21.6832 23.1711C22.0425 22.9814 22.6342 22.4543 22.9935 22.2013C22.9935 22.5597 23.5219 22.8127 23.5853 23.2766C23.6487 23.7404 22.8033 24.1199 22.7611 24.1199C22.7188 24.1199 21.8523 23.4031 21.6832 23.1711ZM58.3933 43.7911C58.3933 44.1917 58.3933 44.5502 57.7381 44.5502C56.4912 44.5502 57.083 43.5382 56.8505 43.3063C56.4758 43.2233 56.0931 43.1809 55.7093 43.1798C55.35 43.1798 55.4134 43.8966 55.4134 44.255C55.4134 46.1104 59.9573 46.4688 59.9573 44.255C59.9573 43.3062 59.9573 42.7791 58.7526 42.1466C58.034 41.9147 57.1464 41.725 57.1464 41.2611C57.1464 40.7973 57.6113 40.7129 57.9283 40.7129C58.2454 40.7129 58.2876 40.8395 58.4567 40.9449C58.4567 41.7882 58.4567 41.6617 59.0062 41.6617C60.084 41.6617 60.0207 41.9779 60.0207 40.9027C60.0207 39.8274 58.9428 39.5111 58.034 39.5111C57.1253 39.5111 56.4913 39.5111 55.9206 40.1647C55.6882 40.5442 55.3288 41.978 56.2799 42.5683C56.766 42.9267 58.3933 43.3484 58.3933 43.7701V43.7911ZM39.3725 40.2491C39.3615 40.5733 39.4457 40.8936 39.6146 41.1708C39.7836 41.4479 40.03 41.6698 40.3236 41.8093C41.1689 42.2942 42.6061 42.7581 43.4515 41.9991C43.6637 41.6833 43.8209 41.334 43.9164 40.9659C44.2123 40.2491 44.5293 39.5955 44.7618 38.8575C44.8827 38.6917 44.9665 38.5019 45.0076 38.301C45.0487 38.1001 45.0462 37.8928 45.0001 37.6929C44.954 37.4931 44.8655 37.3054 44.7406 37.1426C44.6156 36.9798 44.457 36.8456 44.2757 36.7491C43.6205 36.201 41.5283 35.3787 40.7463 36.5594C40.5473 36.9221 40.3845 37.3035 40.2602 37.6979C39.9101 38.4926 39.6135 39.3096 39.3725 40.1437V40.2491ZM40.8731 40.3756C41.195 39.4182 41.5761 38.4817 42.0143 37.5714C42.1341 37.475 42.278 37.413 42.4305 37.3921C42.583 37.3713 42.7383 37.3924 42.8797 37.4532C43.0211 37.5139 43.1431 37.612 43.2327 37.7369C43.3223 37.8618 43.376 38.0087 43.3881 38.1618C43.3881 38.3937 42.6694 40.0171 42.5426 40.3756C42.4158 40.734 42.3102 41.1557 41.7607 41.0292C41.2112 40.9027 40.8731 40.734 40.8731 40.3756ZM72.5744 38.0353C72.6634 38.5269 72.8051 39.0076 72.997 39.469L73.9692 42.3575C74.0118 42.5862 74.0903 42.8067 74.2017 43.0111C74.2187 43.138 74.2619 43.26 74.3285 43.3695C74.4342 43.8966 74.4976 43.6014 74.561 43.6647H74.6878L75.1528 43.4749C75.9981 43.243 75.9347 43.4749 75.512 42.1677C75.3361 41.8529 75.2146 41.5108 75.1528 41.1557C75.3478 41.0772 75.5554 41.0343 75.7656 41.0292C75.7656 41.2189 76.7801 42.231 76.8857 42.4629C76.9914 42.6948 77.2027 42.8213 77.6677 42.6527C78.8723 42.2942 78.809 42.3996 78.027 41.4509L77.245 40.5021C77.1394 40.3756 77.0759 40.3756 77.0125 40.2491C78.0904 39.5322 77.3084 37.6769 76.6533 37.3185C75.9981 36.96 74.6878 37.3184 73.9692 37.5082C73.779 37.5082 72.5744 37.8666 72.5744 38.0353ZM74.3707 38.6467C74.8568 38.6467 75.9981 37.8666 75.9981 39.3003C75.9981 39.6588 75.0893 39.8907 74.7301 39.9539C74.5826 39.5262 74.4626 39.0896 74.3707 38.6467ZM44.7829 43.243C44.7829 43.4749 44.7829 43.4327 44.9731 43.4749C45.1145 43.488 45.2514 43.5311 45.3746 43.6014C46.2834 43.8333 46.1566 43.8966 46.4525 42.7581C46.5793 42.3575 46.7061 41.999 46.7695 41.6828H47.2978C47.306 42.0096 47.3485 42.3347 47.4246 42.6527C47.5303 43.9599 47.4246 44.0863 48.0164 44.255C49.1576 44.5502 49.1577 44.5502 49.0309 43.8966C48.9041 43.243 48.8618 42.0412 48.7984 41.7882C49.0279 41.7814 49.252 41.7182 49.4511 41.6041C49.6502 41.4901 49.818 41.3288 49.9396 41.1346C50.1377 40.6356 50.2588 40.1096 50.2989 39.5744C50.2989 38.2461 48.1855 37.8877 47.2344 37.5925C46.2834 37.2973 46.4525 36.9389 45.438 40.5232L44.7829 43.243ZM48.0798 40.6708C47.7562 40.6235 47.4378 40.5458 47.1288 40.4388C47.2108 39.9867 47.3309 39.5424 47.488 39.1105C47.7538 39.1784 48.015 39.263 48.2701 39.3636C48.416 39.4167 48.5391 39.5184 48.6188 39.6515C48.6985 39.7845 48.7298 39.9409 48.7075 40.0943C48.6852 40.2477 48.6105 40.3887 48.4963 40.4937C48.3819 40.5987 48.2349 40.6612 48.0798 40.6708ZM91.5106 27.1139C91.8218 27.4771 92.161 27.8155 92.5251 28.1259L95.2937 30.6981C95.4256 30.9213 95.6368 31.0868 95.8854 31.1619C96.1179 31.0565 96.7941 30.4451 96.8364 30.1499C96.5405 29.7282 95.9488 29.3277 95.7163 29.0114C95.4838 28.6951 95.3993 28.7795 95.3571 28.6529C95.4429 28.5105 95.5419 28.3764 95.6529 28.2523C96.0122 28.2523 97.3225 29.0114 97.872 29.0747C98.2822 28.7913 98.6278 28.4249 98.8864 27.9994C98.5664 27.753 98.1998 27.5737 97.8086 27.4723C97.3959 27.3034 96.9723 27.1625 96.5406 27.0506C96.6067 26.8596 96.6493 26.6614 96.6674 26.4602C96.6674 25.6801 96.1179 25.3849 95.7163 24.9633C94.5751 23.8247 93.3704 25.0687 92.6519 25.7856L91.5106 27.1139ZM94.3848 27.7675C94.2145 27.6447 94.0586 27.5032 93.9199 27.3458C93.7277 27.2173 93.5627 27.0525 93.4338 26.8608L93.7931 26.397C94.6385 25.5536 95.1669 26.397 95.1669 26.6922C95.1669 26.9873 94.6385 27.4723 94.3848 27.7675ZM67.3119 39.2371L68.263 43.6647C68.2805 44.1506 68.4263 44.6234 68.6856 45.0352C69.1154 45.0035 69.5406 44.9257 69.9537 44.8032C70.7342 44.7157 71.4891 44.4719 72.1728 44.0864C72.4796 43.7868 72.6759 43.3925 72.7296 42.9676C72.7833 42.5427 72.6913 42.1122 72.4687 41.746C72.2252 41.4515 71.8767 41.2626 71.4965 41.2189C71.8135 40.734 72.1094 40.6075 71.7501 39.469C71.3908 38.3305 69.6367 38.6467 68.7491 38.8154L67.6078 39.0684C67.4388 39.0684 67.6078 39.0684 67.3119 39.2371ZM69.1084 39.9539C69.6367 39.9539 70.4187 39.5322 70.4187 40.5653C70.4187 41.0292 69.7001 41.0924 69.2775 41.2189C69.2775 40.9237 69.1084 40.2491 69.1084 39.9539ZM69.5311 42.2942C69.9537 42.2942 70.8413 41.8725 71.1372 42.2942C71.4965 43.2641 70.4821 43.4328 69.7635 43.4328C69.7167 43.013 69.6391 42.5972 69.5311 42.1888V42.2942ZM28.3194 30.6348L28.7843 28.1891C29.0379 27.1138 29.207 27.2193 28.4884 26.6922C27.7698 26.1651 28.256 26.1018 26.9879 27.3458L24.4729 30.0866C23.8812 30.6981 23.8812 30.8035 24.4729 31.1619C25.0647 31.5204 24.8322 31.8366 25.5508 31.1619C25.9735 30.8035 26.7554 29.7704 27.1781 29.4753L26.4595 32.5324C26.4595 32.8275 26.3327 32.954 26.4595 33.1227C26.7166 33.3707 27.0001 33.5899 27.3049 33.7763C27.6642 33.7763 27.7064 33.4811 27.8967 33.3125L29.3972 31.6258C29.5068 31.5636 29.6066 31.4854 29.6931 31.3939C30.0524 30.9722 31.257 29.665 31.4261 29.2855L30.7075 28.6108C30.5807 28.5054 30.7075 28.5053 30.475 28.4421C29.9889 28.7373 28.7843 30.2975 28.3616 30.5505L28.3194 30.6348ZM87.6219 34.5775C86.8531 33.7353 86.0344 32.9398 85.1704 32.195C84.6829 32.2901 84.2512 32.5697 83.9657 32.9752C83.9657 33.2071 84.9168 35.7793 84.9802 36.0745C84.6209 35.8426 82.8667 33.9661 82.5286 33.9661C82.1904 33.9661 81.5141 34.5143 81.3873 34.683C81.7968 35.2049 82.2569 35.6851 82.761 36.1167C82.9512 36.3064 83.0569 36.3485 83.2471 36.5383L85.1704 38.3937C85.3146 38.5456 85.4701 38.6865 85.6353 38.8154C85.8889 39.0473 86.058 38.8154 86.2482 38.8154C87.3261 38.0985 87.1993 38.8154 86.2482 35.695L86.0157 34.9781L87.8544 36.7703C88.2771 37.1287 88.3405 37.4871 88.9322 37.1287C89.9678 36.4751 89.841 36.8968 89.1858 34.8095L87.8544 31.0354C87.6853 30.5083 87.4951 30.8035 87.1358 31.0354C87.0024 31.1804 86.8452 31.3017 86.6709 31.3939C86.7383 31.9969 86.895 32.5866 87.1358 33.1438C87.1358 33.439 87.326 33.671 87.3894 33.9661L87.6219 34.5775ZM64.0996 16.7617C64.0052 17.7792 64.1468 18.8047 64.5132 19.7589C64.8797 20.7131 65.4613 21.5704 66.213 22.2645C66.4671 22.4659 66.7071 22.6843 66.9315 22.9181C67.1808 23.1345 67.3822 23.4002 67.5233 23.6982C67.762 24.0733 67.8888 24.5084 67.8888 24.9527C67.8888 25.397 67.762 25.8321 67.5233 26.2072C66.6357 27.3457 64.9027 26.9241 64.9027 27.8729C64.9027 28.421 65.0717 28.7162 65.6212 28.7162H70.2919C70.6511 28.7162 70.8202 28.7162 71.1795 28.7162C71.5388 28.7162 72.511 28.9481 72.511 27.9994C72.511 27.0506 71.7924 27.409 70.7146 26.8608C70.311 26.7263 69.9684 26.4532 69.7478 26.0903C69.5272 25.7274 69.4429 25.2981 69.5099 24.8789C69.5099 23.4452 70.8202 22.7706 71.1795 22.5597L71.8347 21.9061C72.7364 20.786 73.2416 19.3998 73.2718 17.9634C73.343 16.2133 72.9952 14.4716 72.2573 12.8823C71.9444 12.2217 71.4419 11.6687 70.8136 11.2933C70.1852 10.918 69.4594 10.7372 68.728 10.7739C68.3393 10.77 67.953 10.8342 67.5867 10.9636L66.6357 11.322C66.5385 11.4295 66.4145 11.5096 66.2764 11.554L65.8537 11.807C65.2934 12.628 64.8656 13.5314 64.5857 14.4846C64.3998 15.2317 64.2795 15.9937 64.2264 16.7617H64.0996ZM68.9604 11.322C69.6706 11.3018 70.3607 11.559 70.8836 12.0389C70.9893 12.1654 71.1795 12.334 71.1795 12.5238H66.0228C66.2553 11.6804 68.0094 11.3853 68.9604 11.3853V11.322ZM65.1351 14.6743C65.1351 14.2527 65.6635 12.9244 66.0228 12.9244C66.3821 12.9244 71.2429 12.9244 71.4754 13.0509C71.7078 13.1774 72.0671 14.4846 72.1939 14.7165C71.5388 14.7165 70.2708 14.5478 69.1929 14.5478H67.3965C66.5723 14.5478 65.8959 14.6743 65.1351 14.6743ZM64.7125 17.7737C64.6632 17.1323 64.6987 16.4872 64.8181 15.855C64.9449 15.2647 64.8181 15.2014 65.2408 15.1382C67.2732 14.9695 69.3162 14.9695 71.3486 15.1382C71.5873 15.1661 71.8284 15.1661 72.0671 15.1382C72.4264 15.1382 72.3842 15.1382 72.4264 15.5599C72.6591 16.4893 72.7005 17.4562 72.5479 18.402C72.3953 19.3479 72.052 20.253 71.5388 21.0627C71.2786 21.4699 70.9324 21.8153 70.5244 22.0748C69.986 22.4116 69.3634 22.5902 68.728 22.5902C68.0925 22.5902 67.4699 22.4116 66.9315 22.0748C66.257 21.5459 65.7082 20.8746 65.3245 20.1091C64.9409 19.3436 64.7319 18.5028 64.7125 17.6472V17.7737ZM65.3676 27.8096C65.7414 27.7391 66.1039 27.6185 66.4454 27.4512C66.7947 27.3495 67.1192 27.1771 67.3985 26.9445C67.6778 26.712 67.9059 26.4244 68.0686 26.0998C68.2313 25.7751 68.325 25.4205 68.3439 25.058C68.3628 24.6956 68.3065 24.3331 68.1784 23.9934C68.0755 23.7635 67.9976 23.5231 67.946 23.2766C68.2419 23.2766 68.3053 23.2766 68.6012 23.2766C68.8389 23.2357 69.0819 23.2357 69.3197 23.2766C69.3197 23.5085 69.0872 23.635 69.0238 23.9302C68.8561 24.2864 68.7691 24.6752 68.7691 25.0687C68.7691 25.4623 68.8561 25.851 69.0238 26.2072C69.2818 26.602 69.6239 26.9352 70.0257 27.183C70.4276 27.4309 70.8792 27.5872 71.3486 27.641C71.6022 27.641 71.9615 27.9994 71.5388 28.0626H68.6646H67.7558H66.8047C65.4733 28.0626 65.3042 28.2524 65.3042 27.7675L65.3676 27.8096ZM57.1675 12.5659C57.2323 12.9209 57.2676 13.2805 57.2732 13.6412C57.2732 14.1262 57.2732 14.3581 57.2732 14.9063V15.4334C57.3462 16.0282 57.3885 16.6264 57.4 17.2255C57.4 18.0056 57.5691 19.861 57.6325 20.7044L57.8227 23.6982C57.8227 23.9301 57.8227 23.9301 57.8227 24.2253C57.7911 24.6253 57.7911 25.0271 57.8227 25.4271C58.0763 27.2825 57.6536 29.4963 58.964 29.8969C59.3866 30.0234 59.3866 29.8969 59.3866 30.3818C59.3866 31.8155 58.0763 31.3939 57.4634 31.7523C56.8505 32.1107 56.5758 32.9541 57.8227 32.9541C58.2454 32.9541 58.6047 32.9541 59.0908 32.9541H61.5846C62.155 32.9909 62.7274 32.9267 63.2753 32.7643C63.5712 32.5324 63.7403 31.6891 62.1975 31.5204C61.4155 31.3939 61.1619 31.1619 61.1619 30.4451C61.1619 29.7282 61.4155 29.9602 61.7748 29.7915C62.7258 29.3066 62.6624 27.2825 62.7258 26.2494C62.7258 25.9542 62.7258 25.9542 62.7258 25.7223V25.0687C62.9161 23.1501 62.916 20.5146 63.0851 18.9755L63.2119 16.5719C63.2119 16.0448 63.3176 15.3701 63.3176 14.7798V13.5359C63.2898 13.3542 63.2898 13.1693 63.3176 12.9877C63.3176 12.8611 63.9728 11.9124 62.4088 11.1955C61.5986 10.8266 60.7036 10.6828 59.8182 10.7793C58.9329 10.8758 58.0901 11.209 57.3789 11.7437C57.2592 11.8321 57.1609 11.9462 57.0914 12.0776C57.0219 12.209 56.983 12.3542 56.9773 12.5027L57.1675 12.5659ZM58.0551 12.8189L61.9439 12.6924C62.2398 12.6924 63.0217 12.819 63.0217 12.4606C63.0217 12.1021 62.43 11.7437 62.0707 11.554C61.4436 11.3423 60.7788 11.2649 60.1197 11.3266C59.4606 11.3884 58.822 11.5879 58.2454 11.9124C58.1415 11.9887 58.0555 12.0868 57.9934 12.1996C57.9314 12.3125 57.8948 12.4375 57.8861 12.5659C57.8861 12.5659 57.9917 12.7557 58.0551 12.8189ZM62.599 14.9273C61.8043 14.9915 61.0056 14.9915 60.2109 14.9273H58.3511C57.8227 14.9273 57.9283 15.0539 57.9283 13.4304C57.9283 13.1985 58.5413 13.325 59.0696 13.325H59.7248C59.9277 13.2916 60.1347 13.2916 60.3377 13.325C60.9572 13.3566 61.578 13.3566 62.1975 13.325C62.7258 13.325 62.6624 12.9665 62.6624 14.2737C62.6624 14.6322 62.6624 14.6955 62.6624 15.0539L62.599 14.9273ZM61.2253 15.349C61.681 15.2853 62.1434 15.2853 62.599 15.349L62.4933 16.9092C62.4933 17.2676 62.4933 17.9213 62.4933 18.5749L62.3665 20.6832C62.3665 21.1682 62.3665 21.3369 62.3665 21.8218C62.3665 23.1922 62.3665 24.879 62.3665 26.2494C62.335 26.6283 62.335 27.009 62.3665 27.3879C62.3665 28.7584 62.3665 29.4963 61.0351 29.4963H59.9573C58.8372 29.4963 58.8794 28.4843 58.8794 27.156L58.7738 24.9422C58.7738 24.3518 58.6469 23.5085 58.5835 22.8338V21.7585C58.5835 20.873 58.4145 19.8399 58.3511 19.0809L58.2243 15.3069C58.3511 15.075 58.4144 15.3069 59.1964 15.3069C59.9784 15.3069 60.6335 15.3069 61.4578 15.3069L61.2253 15.349ZM60.1475 30.1077H60.6969C60.6969 30.5927 60.4011 31.0143 60.866 31.6047C61.3281 32.0595 61.9499 32.3167 62.599 32.3215C62.8527 32.3215 62.8526 32.3216 62.8526 32.6167C62.5506 32.6493 62.2459 32.6493 61.9439 32.6167C61.4155 32.6167 58.8371 32.6167 58.1185 32.6167C57.9579 32.587 57.7932 32.587 57.6325 32.6167V32.3848C58.3511 32.1951 60.4011 32.3848 60.1475 30.1077ZM46.4947 12.84C46.4947 13.5569 46.854 13.2617 46.7272 14.4424C46.5546 16.2422 46.6186 18.0567 46.9174 19.8399C47.1066 20.524 47.4793 21.1436 47.9953 21.632C48.2376 21.8641 48.5254 22.0436 48.8407 22.1591C49.4324 22.4543 49.4958 22.2856 49.7283 22.5808C50.0617 22.8864 50.3135 23.27 50.4611 23.697C50.6087 24.124 50.6474 24.5809 50.5737 25.0265C50.5737 25.9331 50.4468 26.8819 49.6015 27.3036C49.1365 27.5355 48.1221 27.4723 47.7628 27.8307C47.6618 28.0209 47.5973 28.2283 47.5726 28.4421C47.5726 29.2644 48.6505 28.8638 49.7917 28.8638C50.151 28.8638 50.2778 28.8638 50.6793 28.8638C51.0809 28.8638 51.8206 28.8638 52.5391 28.8638C53.4609 28.9282 54.386 28.9282 55.3077 28.8638C55.4016 28.7828 55.4705 28.6769 55.5064 28.5584C55.5423 28.4399 55.5437 28.3137 55.5105 28.1944C55.4773 28.0752 55.4108 27.9677 55.3188 27.8846C55.2268 27.8016 55.113 27.7463 54.9907 27.7253C53.8706 27.4933 53.2577 27.7253 52.8773 26.903C52.4067 25.6363 52.4522 24.2361 53.0041 23.0025C53.6593 22.3489 55.2866 22.8971 56.1742 20.3249C56.4676 19.154 56.5534 17.9409 56.4278 16.7406C56.4278 15.9605 56.301 14.337 56.4278 13.9153C56.5335 12.9666 56.7871 12.7979 55.8149 11.9546C54.3144 10.5841 50.4891 10.6474 48.4603 11.301C47.7417 11.5329 46.537 12.0178 46.537 13.0298L46.4947 12.84ZM47.0231 12.9665C47.0475 13.1153 47.1134 13.2541 47.2133 13.3671H47.8685C49.7917 13.3671 49.2422 15.4755 49.369 16.9092C49.4958 18.3429 50.3201 18.1532 50.5103 16.9092L50.6371 15.4123C50.6371 14.6322 50.6371 14.5057 50.8695 14.0418C50.9777 13.8717 51.1277 13.732 51.3053 13.6361C51.4828 13.5401 51.6821 13.4911 51.884 13.4936C53.2577 13.4936 53.5113 14.9906 54.1665 14.9906C54.8216 14.9906 54.8216 14.0418 55.1809 13.6834C55.5402 13.325 55.8995 13.5569 55.9629 13.325C55.9631 13.0185 55.8588 12.7211 55.667 12.4817C54.7299 11.6881 53.5357 11.261 52.3066 11.2799H50.1932C49.6015 11.2799 47.0654 11.7015 47.0654 12.9033L47.0231 12.9665ZM55.667 14.4424H55.3077C55.3077 14.337 55.4768 13.9786 55.6036 13.9786C55.7304 13.9786 55.7304 14.337 55.6036 14.4424H55.667ZM47.5092 13.9153C48.0587 13.9153 48.6505 13.9153 48.6505 14.6322C48.2728 14.6971 47.8868 14.6971 47.5092 14.6322C47.1499 14.6322 47.2133 13.8521 47.5092 13.8521V13.9153ZM51.2288 14.6954C51.2888 14.526 51.3667 14.3634 51.4613 14.2105C51.5695 14.1369 51.6925 14.0876 51.8216 14.0659C51.9508 14.0442 52.0831 14.0505 52.2096 14.0846C52.336 14.1186 52.4536 14.1795 52.5542 14.2631C52.6549 14.3467 52.7363 14.451 52.7927 14.5689L51.2288 14.6954ZM47.3401 15.1171H48.9041C48.9041 16.593 48.6082 18.5116 50.151 18.5116C50.7005 18.5116 51.0598 17.7315 51.1654 17.2677C51.2937 16.5722 51.3574 15.8664 51.3556 15.1593C51.7521 15.069 52.1639 15.069 52.5603 15.1593C52.6924 15.1287 52.8298 15.1287 52.9619 15.1593C53.5747 15.1593 53.5747 15.6864 54.2299 15.6864C54.885 15.6864 54.8851 14.9695 55.7304 14.9695C56.0263 14.9695 55.8995 15.328 55.8995 15.6442C55.9635 16.6553 55.9635 17.6693 55.8995 18.6803C55.8995 21.4423 54.3355 22.3278 51.7783 22.3278C50.1509 22.3278 48.3546 21.9694 47.7628 20.4724C47.2109 18.8006 47.0874 17.0175 47.4035 15.2858L47.3401 15.1171ZM50.3835 22.5808H52.4969C52.4969 22.876 52.2432 23.1079 52.1798 23.4242C51.98 24.4264 51.98 25.458 52.1798 26.4602C52.6659 28.4421 54.8216 27.662 55.0541 28.1891C54.498 28.221 53.9406 28.221 53.3845 28.1891C52.7927 28.1891 52.2432 28.1891 51.7149 28.1891H49.8551C49.3056 28.1891 48.7772 28.3156 48.1643 28.3156V28.1259C49.5592 27.8307 50.5736 27.8939 50.9329 26.4602C51.135 25.8873 51.2167 25.2791 51.1731 24.6734C51.1295 24.0677 50.9614 23.4774 50.6793 22.9392C50.5929 22.7905 50.494 22.6494 50.3835 22.5175V22.5808ZM34.4483 16.7195C34.6831 18.7297 35.5917 20.602 37.0266 22.0326C37.1899 22.1232 37.3335 22.2449 37.4493 22.391C37.7423 22.5789 38.0246 22.7831 38.2947 23.0025C38.8865 23.3609 39.1189 23.2976 39.1189 23.8247C39.1189 25.3217 37.8086 26.397 38.8231 26.7554C39.5577 26.8618 40.3002 26.9041 41.0421 26.8819C41.4014 26.8819 41.5916 26.8819 41.9932 26.8819C42.4354 26.8293 42.8823 26.8293 43.3246 26.8819H45.2267C46.0721 26.7765 45.4169 25.7645 45.2267 25.385C45.0183 24.8088 44.8971 24.2047 44.8674 23.5928C44.8674 22.7073 45.8396 18.2165 45.8396 16.5508C45.8811 15.609 45.7958 14.6658 45.586 13.7466C45.586 13.4936 45.4169 13.1985 45.3535 12.9665C45.2901 12.7346 45.4803 12.4816 45.2267 12.1865C44.3391 10.816 42.2468 10.9846 40.7463 11.1744C40.2754 11.2085 39.8192 11.353 39.4148 11.5961C38.2947 12.1232 38.7596 12.4816 38.5906 13.2618C38.4215 14.0419 38.5906 14.1051 37.872 14.2105C36.604 14.337 36.0122 14.2105 35.1668 14.9273C34.6934 15.4536 34.4367 16.1389 34.4483 16.846V16.7195ZM39.3091 12.3552C39.3091 11.8281 41.2323 11.575 41.8875 11.575C42.7357 11.4694 43.5954 11.6394 44.3391 12.06C44.5081 12.06 44.9943 12.4817 44.5082 12.5449H42.3948C41.7396 12.5449 40.4926 12.5449 39.7107 12.5449C39.4571 12.5449 39.3514 12.5449 39.3514 12.3552H39.3091ZM40.2602 13.1985H44.0432C44.3391 13.1985 44.4659 13.1985 44.7618 13.1985C45.0087 13.7186 45.1316 14.2887 45.121 14.8641H39.0133C38.9802 14.4079 38.9802 13.9499 39.0133 13.4936C39.1401 12.9665 39.3091 13.2618 40.1545 13.2618L40.2602 13.1985ZM35.7797 17.2044C35.7797 15.4123 36.7308 15.349 37.8932 15.349C38.3581 15.349 38.4215 14.9906 38.2947 14.5057C37.9988 14.5057 35.9699 14.6954 35.7797 14.7587C35.5895 14.8219 35.3148 15.2858 35.2514 15.5177C35.0725 16.0473 35.001 16.6071 35.0409 17.1645C35.0808 17.7219 35.2313 18.2658 35.4838 18.7646C36.1495 20.5041 37.4265 21.9428 39.0767 22.8127C39.0767 21.2736 39.0766 21.5688 38.654 21.5688C37.7663 21.4423 36.5405 19.8821 36.2024 18.9966C35.9195 18.4397 35.7609 17.8283 35.7374 17.2044H35.7797ZM44.3391 22.9392C44.3618 22.2943 44.4396 21.6524 44.5716 21.0206C44.7081 20.4087 44.8069 19.7891 44.8674 19.1652C44.9942 18.5116 45.0576 17.9213 45.121 17.2677C45.121 16.9514 45.121 16.593 45.121 16.2346C45.2267 15.2858 45.121 15.8761 45.121 15.349C44.5279 15.2325 43.9177 15.2325 43.3246 15.349H39.5416C39.4148 15.349 39.3091 15.349 39.1823 15.349C39.0555 15.349 39.1823 15.349 38.9499 15.349C38.8381 15.7393 38.7952 16.1459 38.8231 16.5508C38.8231 19.0598 39.9643 21.1471 39.605 23.8458C39.4148 25.2795 39.0555 24.7946 40.0911 24.9211C41.1266 25.0476 43.0711 24.9211 44.4448 24.9211C44.4448 24.5627 44.2757 24.373 44.2757 24.0145L44.3391 22.9392ZM38.337 16.1924C38.3453 16.9987 38.4231 17.8029 38.5694 18.596C38.7747 19.338 38.937 20.0913 39.0555 20.852C38.0199 20.852 36.3503 18.7435 36.3503 16.846C36.3503 15.602 37.1323 15.7707 38.2102 15.7707C38.506 15.7707 38.337 16.0237 38.337 16.1924ZM40.4504 26.1862H39.0133C39.0649 26.0134 39.1434 25.8498 39.2457 25.7012C39.3053 25.5146 39.3906 25.3372 39.4993 25.1741C40.7479 25.3161 42.0048 25.3724 43.2612 25.3428C43.5843 25.3078 43.9103 25.3078 44.2334 25.3428C44.5293 25.3428 44.6984 25.2374 44.952 25.5326C45.1186 25.713 45.2223 25.9422 45.2478 26.1862C44.6706 26.2179 44.0921 26.2179 43.5149 26.1862C42.437 26.1862 41.5282 26.3127 40.4504 26.3127V26.1862ZM73.7579 12.3762C73.7579 13.1563 73.8847 12.8612 73.9481 13.2618C74.0538 14.337 74.1805 21.5688 74.1171 22.3489C73.8847 24.8579 72.6166 26.2916 75.5543 26.2916C77.4141 26.2916 80.711 26.2916 82.3806 26.1862C82.4845 26.1811 82.5862 26.1547 82.6794 26.1089C82.7727 26.0631 82.8556 25.9986 82.9229 25.9196C82.9902 25.8406 83.0406 25.7486 83.0709 25.6494C83.1013 25.5502 83.1109 25.4458 83.0992 25.3428C83.0992 24.9843 82.8667 24.7525 82.8033 24.0778C82.9935 24.0778 82.9935 23.9723 83.1626 23.9091C83.1626 23.0025 82.6765 22.7705 84.2404 22.2434C85.8044 21.7163 85.741 20.9784 85.9312 19.8399C86.227 18.2375 86.5229 15.1804 84.4306 14.7587C83.8178 14.7587 82.444 15.2436 82.444 14.2948V13.1141C82.444 12.8822 83.3951 12.334 82.1482 11.4485C81.4281 11.0414 80.6273 10.7968 79.8023 10.7317C79.3168 10.6085 78.8083 10.6085 78.3229 10.7317C77.7734 10.7317 77.4141 10.7317 76.8646 10.7317C76.0078 10.8331 75.1769 11.0904 74.4131 11.4907C74.2453 11.5864 74.0999 11.7168 73.9869 11.8732C73.8739 12.0296 73.7958 12.2083 73.7579 12.3973V12.3762ZM80.3518 16.0237C80.3518 14.8852 80.5843 12.7347 78.7878 12.7347C77.9002 12.7347 77.1182 12.5449 76.8223 13.2195C76.6955 13.5147 76.5688 13.9365 76.1461 13.9365C75.7234 13.9365 75.6811 13.3882 75.4275 13.093C75.1738 12.7979 74.3497 12.9665 74.3497 12.4394C74.3497 11.9124 75.6177 11.5329 76.1038 11.4696C77.9124 11.032 79.8108 11.1421 81.5564 11.7859C83.0358 12.5449 81.5564 12.7346 81.3662 12.8612C80.711 13.2617 80.7744 14.2316 80.7744 14.9695C80.7744 15.2015 80.7744 15.7285 80.6476 15.9183C80.5208 16.108 80.6476 15.9183 80.3518 15.9183V16.0237ZM74.7089 13.2618C74.4764 13.2618 74.7089 13.3882 74.7089 13.9786V16.6141C74.7089 17.6894 74.7089 20.1983 74.7089 21.5688C74.7089 24.6892 73.314 25.153 74.7089 25.5747C75.2584 25.7012 76.5687 25.7012 76.9914 25.7645C77.7721 25.8282 78.5566 25.8282 79.3373 25.7645H80.5208C82.8667 25.7645 82.5075 25.4693 82.275 24.4994C82.1622 24.2567 82.0771 24.0021 82.0214 23.7404C81.7889 23.7404 81.7888 23.8458 81.3028 23.9723C79.208 24.6033 76.9548 24.4534 74.9625 23.5507C74.7723 23.4242 74.7301 23.4242 74.7301 23.2555C74.9895 23.3125 75.2438 23.39 75.4909 23.4874C77.6225 24.0051 79.8475 24.0051 81.9791 23.4874C81.9791 23.0658 81.9791 22.8338 81.9791 22.4121C81.9791 20.9784 82.0847 15.7918 81.9791 15.1171C81.6198 15.1171 81.493 15.1171 81.493 15.3701C81.493 15.6231 81.493 15.7918 81.493 16.087C81.4615 16.2441 81.381 16.3873 81.2629 16.4959C81.1449 16.6046 80.9953 16.6732 80.8358 16.6919C80.6763 16.7107 80.515 16.6786 80.3749 16.6002C80.2347 16.5218 80.123 16.4012 80.0559 16.2556C80.0334 15.9187 80.0334 15.5806 80.0559 15.2436C79.3796 15.075 78.3652 15.2436 77.5832 15.1171H76.3997C75.9773 15.1382 75.554 15.1382 75.1316 15.1171V14.9906C75.7868 14.9906 76.2729 14.9906 76.928 14.9906H79.2739C79.6966 14.9906 80.4151 15.349 79.9925 13.9786C79.9074 13.8486 79.8082 13.7284 79.6966 13.6201C79.3796 13.4304 77.8368 13.1985 77.5832 13.6201C77.4775 13.7888 77.5832 13.9153 77.3507 14.084C77.1182 14.2527 76.1461 14.9273 75.6811 14.084C75.4275 13.7256 75.4909 13.3671 75.0682 13.3671L74.7089 13.2618ZM81.7889 14.6954C81.6111 14.7581 81.4171 14.7581 81.2394 14.6954C81.0703 14.0418 81.0069 13.2195 81.8523 13.2195C81.8523 13.5147 81.8523 13.578 81.8523 13.8731V14.6954H81.7889ZM82.444 17.1623C82.9935 17.1623 82.6343 16.9093 82.7399 16.5508C83.0358 15.7707 84.6632 16.087 84.6632 16.846C84.6632 19.2495 85.0858 21.5688 82.444 21.5688V22.9603C82.4733 23.2186 82.53 23.473 82.6131 23.7193C82.7399 23.7193 82.6131 23.7194 82.6131 23.4242C82.4441 22.7073 82.6131 22.1802 83.3317 21.9272C84.0503 21.6742 84.3039 21.8218 84.6632 21.4633C85.4874 20.62 85.3817 18.8279 85.3817 17.6894C85.3817 14.2949 83.9446 15.9605 82.3172 15.0539L82.444 17.1623ZM83.0992 20.9785H82.5074C82.4419 19.862 82.4419 18.7426 82.5074 17.6261C83.1626 17.6261 83.2894 17.3942 83.2894 16.7406C84.494 16.4454 84.177 17.6261 84.177 18.849C84.1871 19.3324 84.1302 19.8148 84.0079 20.2826C83.9603 20.4816 83.8545 20.6619 83.704 20.8007C83.5535 20.9396 83.3651 21.0308 83.1626 21.0627L83.0992 20.9785ZM31.7008 18.8701V20.7887C31.7008 21.3791 31.7008 21.8007 31.7008 22.3278C30.2637 21.6109 31.0457 19.7134 30.7498 18.5116C30.3905 18.3851 30.3905 18.5116 30.2637 18.9333C30.2341 19.27 30.2341 19.6086 30.2637 19.9453C30.2637 20.4302 30.4539 20.7886 30.2637 21.2525C30.0735 21.7163 29.9044 21.6742 30.6864 22.4543L31.3415 23.1079L33.455 25.0898C34.6405 26.1682 35.9288 27.1286 37.3014 27.9572L38.0834 28.4843L38.9076 29.0324C40.5791 30.0704 42.3237 30.9865 44.1277 31.7734C46.0356 32.6982 48.042 33.4055 50.1087 33.8818C51.6093 34.198 53.0464 34.5564 54.6103 34.7884C58.9906 35.3894 63.4369 35.3254 67.798 34.5986C68.2001 34.5661 68.5971 34.4883 68.9816 34.3667C73.9151 33.2349 78.5762 31.1428 82.6976 28.2102L85.107 26.4181C85.7621 25.891 86.3539 25.2795 87.0302 24.7524L87.3894 24.394L88.108 23.7193L88.4673 23.3609C88.6364 23.1922 88.6364 23.129 88.8266 22.9603C89.0166 22.697 89.2365 22.4564 89.4818 22.2434C90.306 21.5688 90.1369 21.2103 90.2637 20.135C90.2637 19.9031 90.5596 18.5327 90.1369 18.5327C89.7142 18.5327 89.7776 19.6712 89.6508 20.4303C89.524 21.1893 89.6508 21.8639 88.8266 21.9272V18.8279C88.8266 18.4694 88.8265 18.111 88.5095 18.111C88.1925 18.111 88.3405 19.2495 88.3405 19.608C88.4026 20.6749 88.281 21.7445 87.9812 22.7705C87.9128 22.9615 87.8128 23.1397 87.6853 23.2976C87.6385 23.4096 87.5632 23.5075 87.4668 23.5814C87.3704 23.6554 87.2563 23.7029 87.1358 23.7193V20.4935V18.9966C87.1674 18.7445 87.1674 18.4895 87.1358 18.2375C87.1358 17.9213 87.2627 17.6894 86.9034 17.6894C86.5441 17.6894 86.7131 18.111 86.6497 18.4062C86.5863 18.7014 86.6497 19.0598 86.6497 19.4182L86.5229 23.2976C86.5933 23.7538 86.5116 24.2205 86.2905 24.6259C86.1953 24.7166 86.0887 24.7946 85.9735 24.8579C85.887 24.3626 85.887 23.8561 85.9735 23.3609V22.5808C85.9357 22.4889 85.865 22.4143 85.7752 22.3714C85.6854 22.3286 85.5828 22.3206 85.4874 22.3489C85.3606 22.5386 85.4874 22.8971 85.4874 23.129C85.5346 23.9177 85.4489 24.7088 85.2338 25.4693C85.1821 25.5678 85.1068 25.6521 85.0147 25.7147C84.9225 25.7772 84.8163 25.816 84.7054 25.8277C84.674 25.5475 84.674 25.2646 84.7054 24.9844V24.0145C84.6738 23.6991 84.6738 23.3812 84.7054 23.0657C84.725 23.0072 84.7308 22.945 84.7224 22.8838C84.7139 22.8227 84.6914 22.7644 84.6566 22.7134C84.6219 22.6624 84.5758 22.62 84.5219 22.5897C84.468 22.5594 84.4078 22.5419 84.3461 22.5386C84.1585 22.903 84.071 23.3103 84.0925 23.7193C84.0925 24.2043 84.0925 24.6892 84.0925 25.0898C84.0925 25.8277 84.1982 27.0084 83.1837 27.0084C83.0147 27.0084 83.0146 26.903 82.8244 27.0084C82.6342 27.1138 82.8244 27.1349 82.6976 27.3036C82.558 27.5109 82.3477 27.6607 82.1059 27.7253C82.1059 27.5566 82.1059 27.2614 81.81 27.3036C81.5142 27.3458 81.6198 28.1469 81.3239 28.4421C81.1528 28.5857 80.95 28.6869 80.7322 28.7373V28.0205C80.7322 27.7253 80.7322 27.5566 80.4363 27.5566C80.1404 27.5566 80.4363 28.8638 80.077 29.1589C79.8874 29.3042 79.66 29.3921 79.4219 29.412C79.4219 28.7373 79.5275 27.6199 79.0625 27.6199C78.5976 27.6199 79.2316 30.2975 78.1538 30.2975C77.7945 30.2975 77.9636 29.4119 77.9636 29.0957C77.9636 28.7794 77.9636 28.2734 77.9636 27.7885C77.8368 27.7885 77.7734 27.6199 77.6466 27.6199C77.5198 27.6199 77.4141 28.0837 77.3507 28.4421C77.3507 29.5174 77.7734 30.8457 76.5687 30.8878C76.3997 30.0023 76.6955 28.7794 76.5687 27.7253C75.7868 27.5566 76.2728 28.3789 76.0826 29.8336C76.0492 30.2124 76.0492 30.5934 76.0826 30.9722C76.0826 31.2041 76.0826 31.2674 75.9136 31.3939L75.7234 31.5204H75.4909C75.3007 31.5204 75.4909 31.5204 75.3641 31.3306C75.3283 31.1924 75.3283 31.0472 75.3641 30.9089C75.3641 30.3818 75.3641 30.0234 75.3641 29.4753C75.3958 28.8994 75.3958 28.3222 75.3641 27.7464C75.3641 27.5777 75.195 27.5777 75.0048 27.5777C74.8146 27.5777 74.7723 28.2945 74.7723 28.6529V29.3065C74.8085 29.5441 74.8085 29.7858 74.7723 30.0234C74.7723 30.8035 75.1316 32.1318 73.9903 32.1318V30.8668C73.9903 30.4451 73.9903 30.1499 73.9903 29.686C73.1661 29.4963 73.462 30.8035 73.3352 31.7944C73.3352 32.2583 73.3352 32.5113 72.8491 32.5113C72.363 32.5113 72.7434 31.6047 72.7434 31.0776C72.7434 30.5505 72.9125 29.686 72.3841 29.686C71.8558 29.686 72.1939 30.2343 72.1939 30.5294V32.4481C72.1939 32.9752 71.7924 32.9751 71.4331 32.8697C71.4331 32.5113 71.5388 29.686 71.1161 29.686C70.6934 29.686 70.947 30.4029 70.8836 30.7192C70.8519 31.1121 70.8519 31.507 70.8836 31.8999C70.8836 32.4481 71.0739 33.1017 70.461 33.2914C69.8481 33.4812 69.8692 33.1649 69.9326 32.0264C69.9855 31.3879 69.9855 30.7462 69.9326 30.1077C69.9326 29.8758 69.9326 29.686 69.7635 29.686C69.5944 29.686 69.4677 30.1078 69.4677 30.4662C69.4607 30.7931 69.4182 31.1183 69.3409 31.436V33.5444C68.5166 33.7763 68.7491 33.3125 68.7491 31.5625V30.4872C68.7491 30.1921 68.8759 29.4752 68.4532 29.7071C68.0305 29.9391 68.3264 31.4571 68.263 31.8155C68.1573 32.701 68.4532 33.7763 67.8403 33.7763C67.2274 33.7763 67.4388 33.4179 67.481 32.9962C67.5668 31.8875 67.5668 30.7738 67.481 29.665H67.1217C67.0151 30.4544 66.9727 31.2512 66.9949 32.0475C66.8047 32.9963 67.2908 34.1559 66.2764 34.1559C66.0862 34.1559 66.0862 33.9239 66.0862 33.7342V30.6981C66.0862 30.3397 66.2129 29.6228 65.9171 29.6228C65.6212 29.6228 65.6212 30.3397 65.6212 30.6348C65.5895 31.0489 65.5895 31.4647 65.6212 31.8788C65.6212 32.195 65.6212 32.1951 65.6212 32.4902C65.5896 32.6857 65.5896 32.8851 65.6212 33.0806C65.5888 33.2831 65.5888 33.4895 65.6212 33.692C65.6212 34.2191 65.3888 34.1559 64.9661 34.1559C65.043 33.7167 64.9992 33.2649 64.8393 32.8486H64.5434C64.3109 33.9239 64.7124 34.3456 63.698 34.3456C63.4021 34.3456 63.5924 33.8607 63.529 33.6288C63.4656 33.3969 63.5289 33.6288 63.3387 33.5023C62.8103 33.2704 63.1696 34.4089 62.5567 34.4089C61.9438 34.4089 62.1341 34.0926 62.1341 33.5655C61.3733 33.0806 61.6057 33.7974 61.4155 34.4089C60.2954 34.4089 61.3098 33.7974 60.5913 33.3757C60.2954 33.6287 60.2954 33.9239 60.2954 34.3456C60.1535 34.4131 59.9982 34.4481 59.841 34.4481C59.6838 34.4481 59.5285 34.4131 59.3866 34.3456C59.4105 34.2273 59.4105 34.1054 59.3866 33.9872V33.7974C59.3866 33.7974 59.3866 33.3757 59.1542 33.3757C58.9217 33.3757 59.3867 34.4089 58.182 34.1559C58.182 33.924 58.182 33.9239 58.182 33.692C58.182 33.4601 58.182 33.5022 57.9495 33.3757C57.7559 33.6195 57.6317 33.9109 57.5902 34.2191C57.3577 34.2191 57.1675 34.2191 57.1675 33.9239V30.5716C57.1675 30.0445 57.2943 29.433 56.7448 29.3698C56.6244 29.7366 56.5883 30.1257 56.6392 30.5083C56.5124 31.1198 56.6392 33.9872 56.5124 34.1559C55.667 34.3456 55.667 33.7342 55.667 33.1438C55.667 32.0053 55.667 31.0354 55.667 29.7915C55.6721 29.7131 55.6596 29.6345 55.6303 29.5615C55.6011 29.4886 55.5558 29.4231 55.4979 29.3698C55.0752 29.6228 55.1809 29.8548 55.1387 30.2764C55.0964 30.6981 55.1387 30.9933 55.1387 31.4149V32.5535V33.8607C54.9691 33.9169 54.7851 33.9118 54.619 33.8463C54.4528 33.7807 54.315 33.659 54.2299 33.5023C54.1747 32.8639 54.1747 32.222 54.2299 31.5836C54.2299 31.1198 54.2299 29.7283 53.9129 29.4753C53.617 29.6018 53.617 30.0234 53.617 30.3818C53.617 30.7403 53.617 31.921 53.617 32.4902C53.617 33.0595 53.7438 33.5233 53.2155 33.5233C53.0886 33.5233 52.8984 33.3336 52.8561 33.2703C52.8139 33.2071 52.7293 31.9631 52.7293 31.5414L52.6025 29.8126C52.6025 29.5807 52.6026 29.3909 52.3701 29.3909C52.1376 29.3909 52.1376 29.9391 52.0742 30.2342C52.0108 30.5294 52.0742 32.5535 51.9474 32.8065C51.8206 33.0595 51.1654 33.2281 51.2922 32.2583C51.2922 31.9631 51.1654 30.1499 51.102 29.7494C51.0386 29.3488 51.102 29.3909 50.8061 29.3909C50.5102 29.3909 50.5737 31.2463 50.5737 31.6047C50.5737 33.1016 50.8061 32.8697 49.5592 32.5535V30.8878C49.5592 30.3397 49.7283 29.2644 49.2 29.2644C48.6716 29.2644 48.9675 30.8879 48.9675 31.1198C49.0097 31.5193 49.0097 31.922 48.9675 32.3215C48.6508 32.2715 48.3442 32.1719 48.0587 32.0264V29.918C48.0744 29.8141 48.061 29.7079 48.02 29.6111C47.979 29.5144 47.9119 29.4309 47.8262 29.3698C47.4035 29.4963 47.5303 29.9812 47.5303 30.5083V32.0896C47.2592 32.0535 46.9953 31.9753 46.7484 31.8577L46.4947 27.8518C46.4947 27.6198 46.4948 27.4301 46.1989 27.4301C45.903 27.4301 46.0298 27.915 46.0298 28.2735C45.9982 28.6523 45.9982 29.0331 46.0298 29.412L46.1355 31.5204C45.9605 31.532 45.785 31.506 45.6209 31.4441C45.4569 31.3823 45.308 31.2861 45.1844 31.1619C45.0973 30.7234 45.0973 30.2721 45.1844 29.8336C45.1844 29.1168 45.1844 28.5265 45.0788 27.8729C44.9731 27.2193 45.0787 27.3879 44.7195 27.3879C44.3602 27.3879 44.5927 28.6951 44.5927 29.0114V30.8457C44.4639 30.8108 44.3424 30.7537 44.2334 30.677C43.6417 30.3818 43.6417 30.4451 43.6417 29.6017C43.6841 28.8934 43.62 28.1827 43.4515 27.4934C43.0288 27.4934 43.0288 27.5987 43.0288 28.5053V29.2855C43.0288 29.5807 43.0288 29.7072 43.0288 29.9391C42.7923 29.9277 42.5644 29.847 42.3736 29.7071C42.3736 28.9903 42.3736 28.3789 42.3736 27.7885C42.3765 27.7258 42.3665 27.6633 42.3444 27.6045C42.3224 27.5458 42.2886 27.4922 42.2451 27.4468C42.2017 27.4015 42.1495 27.3654 42.0916 27.3408C42.0338 27.3162 41.9715 27.3036 41.9086 27.3036C41.486 27.3036 41.655 27.662 41.655 27.915C41.655 28.168 41.655 28.5686 41.655 28.9903C41.655 29.412 41.655 29.2855 41.4225 29.2223C40.4715 29.0325 41.2958 27.3036 40.4715 27.3036C40.0488 27.3036 40.2179 28.2734 40.2179 28.4421C39.8587 28.4421 39.3303 27.9572 39.3303 27.5566C39.3303 27.156 39.6896 26.8819 39.0767 26.8819C38.4638 26.8819 38.7174 27.2404 38.6751 27.4934C38.3894 27.4134 38.1373 27.2432 37.9566 27.0084C37.8606 26.3513 37.8606 25.6837 37.9566 25.0265C37.9566 24.0777 37.9565 22.6441 37.6606 22.4754C37.3648 22.3067 37.4705 22.4754 37.3014 22.4754C37.2364 23.7677 37.2364 25.0625 37.3014 26.3548C37.0274 26.2469 36.7932 26.0575 36.6306 25.8123C36.4681 25.5672 36.385 25.2782 36.3926 24.9844C36.4573 23.7905 36.4573 22.594 36.3926 21.4001C36.3926 21.1471 36.1601 20.6833 35.9276 20.62C35.8619 21.7295 35.8619 22.8418 35.9276 23.9513C35.9911 24.3282 35.9911 24.7129 35.9276 25.0898C35.794 25.0553 35.6707 24.9895 35.5677 24.8978C35.4648 24.8061 35.3853 24.6912 35.3359 24.5627C35.0823 24.141 35.2091 24.141 35.2091 23.5928C35.0357 22.1518 34.9581 20.7008 34.9766 19.2496V18.2165C34.9766 17.9213 34.9766 17.9213 34.8498 17.7526C34.723 17.584 34.8498 17.4996 34.4905 17.4996C34.342 19.1126 34.342 20.7359 34.4905 22.3489C34.5793 22.8504 34.5356 23.3663 34.3637 23.8458C34.1602 23.7701 33.9937 23.6191 33.8988 23.4242C33.4761 22.876 33.5818 22.5808 33.5184 21.9272C33.455 21.2736 33.5184 20.0086 33.5184 19.1231C33.5184 18.8279 33.5184 17.4363 33.2648 17.4363C33.0112 17.4363 33.0323 17.7526 33.0323 18.0478C32.9981 18.2855 32.9981 18.5269 33.0323 18.7646L31.7008 18.8701ZM14.7934 5.77694C15.4036 9.10331 16.4481 12.3356 17.9002 15.3912C18.1326 16.0026 19.1683 18.0267 19.2105 18.3219C20.2137 17.8146 21.1447 17.1765 21.9791 16.4243C21.9791 16.2978 22.0847 16.2978 22.275 16.1713C22.8033 15.7075 23.1203 15.096 23.9446 14.9273C23.9446 15.096 23.9445 15.0328 23.7121 15.2225C23.4796 15.4123 22.8667 16.1713 22.4018 16.593L21.5564 17.3731C20.5157 18.32 19.3665 19.1409 18.1327 19.8188L16.6956 20.5356C15.7445 20.8941 14.5821 20.9574 14.3074 21.4423C14.1622 21.6539 14.0814 21.9028 14.0749 22.1591C14.0725 22.8344 14.3039 23.4899 14.73 24.0145L15.5543 25.4482C15.6811 25.6901 15.8452 25.9106 16.0404 26.1018L19.0414 29.8547C19.2105 30.1078 19.4007 30.2132 19.5698 30.4662C19.7389 30.7192 20.2883 31.2463 20.6053 31.6469C20.9223 32.0475 22.5074 33.6287 22.7188 33.9239C22.9301 34.2191 23.4373 34.6408 23.9234 34.9992L24.8322 35.7793C24.8322 35.9058 25.0013 35.9058 25.1281 36.0112C26.3313 37.0974 27.6095 38.0978 28.9534 39.0051C30.2848 39.9117 31.5951 40.8605 32.9689 41.7039C33.941 42.231 34.8287 42.8424 35.7797 43.3063L36.5617 43.7279C37.8299 44.38 39.1355 44.9573 40.4715 45.4568C46.5299 47.7975 52.9744 48.9846 59.4712 48.9567C65.0187 48.9813 70.5366 48.1491 75.829 46.4899C76.9703 46.1315 78.1749 45.7731 79.2527 45.3514C79.8445 45.1195 80.3306 44.9508 80.859 44.6978C81.3971 44.4973 81.9198 44.2577 82.4229 43.981C83.6698 43.3906 85.0647 42.8002 86.2482 42.0834C87.8993 41.1249 89.5005 40.0835 91.0457 38.963L92.356 38.0142C92.5458 37.816 92.7507 37.6327 92.9689 37.466C94.8915 36.0026 96.6936 34.3881 98.3581 32.6378C98.5156 32.4188 98.6924 32.2141 98.8864 32.0264L103.578 26.5446C104.075 25.8809 104.514 25.1755 104.889 24.4362C105.417 23.6139 106.495 22.4754 105.776 21.3368C105.48 20.8519 104.762 20.7887 104.297 20.62C103.461 20.4573 102.664 20.1352 101.951 19.6712C101.465 19.3549 101.063 19.123 100.641 18.8279C99.0658 17.8427 97.6421 16.6355 96.4138 15.2436C96.2361 15.0753 96.0735 14.8919 95.9277 14.6954C96.4137 14.6954 96.8998 15.2436 97.1957 15.4755C97.8865 16.1937 98.6515 16.8369 99.4782 17.3942C99.6473 17.4996 99.8375 17.6894 100.07 17.8159C100.248 17.9641 100.448 18.0849 100.662 18.1743C101.646 16.2776 102.507 14.3198 103.24 12.313C103.673 11.2914 104.013 10.2329 104.255 9.15037C104.717 8.01987 105.002 6.82523 105.1 5.6083C104.508 5.6083 103.663 6.32513 103.177 6.57814C102.284 7.2001 101.29 7.6637 100.239 7.94858L98.1256 8.72873C97.7801 8.88591 97.4187 9.00602 97.0478 9.08712C97.0275 8.67759 96.9493 8.27296 96.8153 7.88533L95.3782 4.9547C95.2513 4.65953 95.0823 4.36433 94.8921 4.0059L94.406 3.05717C94.027 2.47234 93.7083 1.85069 93.4549 1.20178C93.2859 1.3072 93.2859 1.4337 93.2859 1.66562C92.6274 5.24088 91.5197 8.71904 89.989 12.0178C89.6821 12.5283 89.4205 13.0644 89.207 13.6201C88.9071 14.1474 88.6864 14.7157 88.5518 15.3069C88.5518 16.4243 92.9055 14.7587 93.2859 14.6954C94.3637 14.4003 96.1601 13.8732 96.1601 15.9605C96.1487 16.314 96.0549 16.66 95.8862 16.9711C95.7174 17.2821 95.4784 17.5498 95.188 17.7526C94.3587 18.7338 93.5962 19.7692 92.9055 20.852L91.722 22.2856C91.2359 22.8971 90.3905 23.6561 90.0312 24.141C89.6719 24.626 88.7843 25.3428 88.2348 25.9331C87.6853 26.5235 86.9245 27.0717 86.3327 27.6199C84.3378 29.1952 82.2174 30.6055 79.9925 31.8366L78.1538 32.7221C76.7343 33.428 75.2734 34.0476 73.779 34.5775C71.4558 35.4 69.0659 36.0207 66.6357 36.4329C59.1575 37.6818 51.4806 36.9101 44.4025 34.198C41.1996 32.8781 38.1636 31.1868 35.357 29.1589C35.0344 28.8859 34.6956 28.6325 34.3426 28.4L31.5106 25.9964L31.0456 25.5326C30.5707 25.122 30.1258 24.6781 29.7142 24.2043L26.7977 20.9152C26.6914 20.7507 26.5712 20.5955 26.4384 20.4514C26.1848 20.0929 26.0157 19.7345 25.7621 19.3761C25.3329 18.655 24.7907 18.0072 24.1559 17.4574C23.374 16.5508 23.7332 14.59 24.8111 14.59C26.7977 14.59 29.0379 15.8972 30.3905 15.8972C30.792 15.8972 31.2781 15.8972 31.2781 15.4123C31.035 14.5176 30.6724 13.6596 30.2003 12.8612C29.2804 10.9677 28.5033 9.00853 27.8755 6.99984C27.6788 6.39095 27.5165 5.7715 27.3895 5.14445C27.0107 3.88855 26.7281 2.60576 26.5441 1.30717L26.2482 1.79212C25.0013 4.06918 24.7477 4.65953 23.543 7.06309C23.1392 7.69905 22.8929 8.42176 22.8245 9.17148C22.0998 8.9785 21.3927 8.72455 20.711 8.41242C20.0239 8.12537 19.3177 7.88586 18.5976 7.69558C17.9374 7.38796 17.2953 7.04305 16.6744 6.66249C16.5468 6.55585 16.4127 6.45724 16.2728 6.36729C16.1143 6.29686 15.9707 6.19668 15.8501 6.07214C15.5419 5.88105 15.1958 5.75874 14.8357 5.71369L14.7934 5.77694ZM90.6864 16.3189C90.8935 16.4121 91.1151 16.4691 91.3415 16.4876C92.4828 16.4876 94.3426 15.3069 95.2937 15.2436C95.2937 15.0539 95.2936 15.0117 94.9977 15.0117C93.9017 15.2361 92.8215 15.532 91.7642 15.8972C91.4265 16.0616 91.0609 16.1617 90.6864 16.1924V16.3189ZM25.1703 15.1804C25.9221 15.3107 26.6637 15.4938 27.3895 15.7285C28.1194 15.885 28.8286 16.1256 29.5029 16.4454C29.3149 16.5301 29.1156 16.587 28.9111 16.6141C27.4106 16.6141 26.0369 15.3701 24.6843 15.3701C24.6843 15.2436 24.9379 15.1804 25.1703 15.1804ZM92.5673 17.0357C93.1625 16.9442 93.7356 16.7441 94.258 16.4454C95.6318 15.8972 95.8009 16.1924 95.8009 15.602C94.5539 15.602 93.2859 16.7406 91.7854 16.7406C91.8864 16.8435 92.0087 16.9232 92.1437 16.9742C92.2788 17.0252 92.4233 17.0462 92.5673 17.0357ZM24.4518 15.9605C24.4518 16.2557 24.6842 16.1291 25.2337 16.3189L26.0157 16.6141C26.9668 17.0358 27.5163 17.3942 28.1292 17.099C28.2071 17.0791 28.2796 17.0423 28.3417 16.9913C28.4038 16.9403 28.4538 16.8763 28.4884 16.8038C26.692 16.8038 24.5363 15.1171 24.5363 15.9605H24.4518ZM93.7086 17.8159C93.3493 17.8159 93.2225 17.5207 92.9266 17.4574C93.0534 17.2677 93.0534 17.4574 93.5818 17.2044L94.258 16.9092C94.6998 16.7208 95.1602 16.5795 95.6318 16.4876C95.2091 17.1623 95.3359 16.9725 94.7864 17.2677C94.2369 17.5628 94.1947 17.8159 93.7086 17.8159ZM24.7477 16.7406C25.4028 16.7406 26.0157 17.3309 27.1993 17.5839C27.1993 17.5839 27.1992 17.584 27.0935 17.6894L26.5441 18.0056C26.3116 18.0056 25.2971 17.5207 25.1069 17.3309C24.935 17.187 24.7726 17.0321 24.6209 16.8671L24.7477 16.7406Z" fill="white"/>
</g>
<defs>
<clipPath id="clip0_75_133">
<rect width="120" height="56.8421" fill="white"/>
</clipPath>
</defs>
</svg>
