<svg width="94" height="45" viewBox="0 0 94 45" fill="none" xmlns="http://www.w3.org/2000/svg">
<path d="M47.0314 44.9665C35.2695 45.0236 23.9136 40.6865 15.2062 32.8117C6.4988 24.9368 1.07291 14.0967 2.12556e-06 2.4319C-0.000332003 2.32807 0.0387376 2.22792 0.109328 2.15151C0.179919 2.0751 0.276847 2.02805 0.380775 2.01974C0.489872 2.01012 0.598534 2.04226 0.684655 2.10965C0.770776 2.17704 0.827877 2.2746 0.8443 2.38244C1.84788 13.8906 7.14749 24.6057 15.6968 32.4125C24.2462 40.2192 35.424 44.5501 47.0232 44.5501C58.6224 44.5501 69.8001 40.2192 78.3495 32.4125C86.8989 24.6057 92.1985 13.8906 93.202 2.38244C93.2016 2.3282 93.2128 2.27447 93.235 2.22492C93.2572 2.17536 93.2897 2.13115 93.3305 2.09521C93.3713 2.05927 93.4194 2.03243 93.4715 2.01657C93.5236 2.00071 93.5785 1.99616 93.6325 2.00324C93.687 2.00936 93.7397 2.0262 93.7876 2.0528C93.8355 2.07939 93.8777 2.11525 93.9116 2.1582C93.9454 2.20115 93.9704 2.25035 93.985 2.303C93.9996 2.35565 94.0036 2.41067 93.9967 2.46485C92.9358 14.1225 87.5226 24.9599 78.8268 32.8353C70.131 40.7108 58.7852 45.0514 47.0314 44.9995V44.9665Z" fill="#FFCC00"/>
<path fill-rule="evenodd" clip-rule="evenodd" d="M69.091 11.934C69.091 12.8819 70.0392 12.9327 71.2204 13.6267C72.0041 14.0564 72.7599 14.537 73.4829 15.0656L72.4514 16.5552C72.1187 17.0292 71.6363 17.4693 71.2703 17.9433L68.8082 20.5332C67.8765 21.3119 67.0281 22.1244 66.0799 22.8354C65.4644 23.3263 64.8488 23.7495 64.2333 24.1896L63.0688 24.9005C60.2447 26.5539 57.1863 27.753 54.0021 28.4553C52.9208 28.6415 51.8894 28.8447 50.7582 28.9801C49.9596 28.9801 49.1944 29.1324 48.3958 29.1324C48.113 29.1324 48.0631 29.2171 47.7803 29.2171C44.481 29.2738 41.1913 28.8404 38.015 27.9306C35.566 27.2273 33.209 26.227 30.9946 24.9513C30.7566 24.7752 30.5064 24.6168 30.246 24.4773L29.8634 24.2234C29.1979 23.851 28.5824 23.3601 27.9835 22.9877C27.3846 22.6153 27.0352 22.209 26.5694 21.8366C26.4516 21.7682 26.3402 21.6888 26.2367 21.5996C26.1321 21.4964 26.021 21.4003 25.904 21.3119L23.8744 19.4329C22.8429 18.3844 21.897 17.2522 21.0463 16.0474C20.8485 15.8042 20.6912 15.5297 20.5805 15.2349C21.362 14.6528 22.1788 14.1214 23.026 13.6437C23.6914 13.2543 24.9557 13.0681 24.9557 12.3064C24.9048 11.6774 24.7112 11.069 24.3901 10.529C24.3097 10.289 24.1978 10.0613 24.0574 9.85189C24.0574 9.61491 23.8744 9.42868 23.7746 9.14091C23.2968 8.22592 22.9175 7.26107 22.6433 6.26319C22.1276 4.72278 21.7117 3.13158 21.2792 1.60809C21.2144 1.07962 21.0385 0.571593 20.7635 0.118506C20.4308 0.203144 20.2976 0.54167 20.1479 0.778657C19.9977 1.08047 19.9019 1.40729 19.8651 1.74354C19.6755 2.342 19.4069 2.91146 19.0666 3.43631C18.5841 4.21498 17.8355 5.45069 17.403 6.17858C16.9704 6.90646 17.403 6.75412 15.4233 6.07701C14.1619 5.63741 12.947 5.07032 11.7967 4.38425C11.3309 4.0457 10.8983 3.47018 10.8983 4.7736C10.9289 5.24236 11.0594 5.69867 11.281 6.11085C11.7551 7.42359 12.1332 8.77019 12.4122 10.1396C12.695 11.0537 13.2108 12.4418 13.5435 13.3051C13.8672 13.8868 14.1346 14.499 14.342 15.1333C14.1449 15.2308 13.9558 15.3439 13.7763 15.4718L13.2107 15.7596C12.768 15.9379 12.3118 16.0795 11.8466 16.1828C10.8983 16.5214 10.183 16.8599 10 17.9602V18.2988C10.304 19.1306 10.7364 19.9077 11.281 20.6009C11.7468 21.3288 12.2292 21.989 12.7449 22.7169C13.263 23.4186 13.8184 24.0911 14.4085 24.7312L15.4899 25.9331C15.5897 26.0178 15.5897 26.0685 15.6895 26.1701L17.0536 27.5582C17.2739 27.797 17.5072 28.0231 17.7524 28.2353L18.9335 29.3356C19.3661 29.7757 19.9317 30.1481 20.3975 30.5375C21.238 31.2476 22.1214 31.9034 23.0426 32.501C23.4252 32.7888 23.7413 32.992 24.1239 33.2289C30.6469 37.5306 38.2281 39.8771 46.0002 40H47.1315C51.9036 39.9625 56.6367 39.1217 61.139 37.5116C63.5443 36.6814 65.8671 35.6216 68.0762 34.3462L71.4034 32.1794C72.5146 31.4815 73.5614 30.6827 74.5309 29.7926L75.2796 29.1663C76.3229 28.2508 77.3117 27.273 78.2408 26.2378L79.3388 24.9851C79.9044 24.2742 80.6031 23.4955 81.2186 22.683C81.8342 21.8705 82.7325 20.5332 83.4312 19.416C83.7799 19.0188 83.9801 18.5094 83.9968 17.9771C84.0119 17.7445 83.9731 17.5114 83.8836 17.2968C83.794 17.0822 83.6561 16.8919 83.4811 16.7414C82.2168 15.8781 81.4515 16.1151 80.2704 15.3364C79.3887 14.8117 79.6216 15.4888 80.7029 12.6111C80.836 12.1709 81.0356 11.8324 81.1687 11.4092C81.7843 9.71644 81.7843 8.87005 82.2501 7.4312C82.6461 6.6176 82.9476 5.75982 83.1484 4.87517C83.1484 4.63818 83.1484 3.87644 82.9155 3.87644C82.6826 3.87644 82.3998 4.16421 82.2501 4.29963C81.0865 4.99397 79.8542 5.56137 78.5735 5.9924C76.6937 6.61872 76.9099 6.61871 76.6437 6.14474L74.9801 3.36858C74.6444 2.84113 74.376 2.2723 74.1816 1.67582C74.1025 1.18006 73.9211 0.706967 73.6492 0.287741C73.6492 0.15232 73.5161 0.0507829 73.3331 0C72.9505 0.236987 72.9007 0.964883 72.7509 1.48964C72.152 3.60559 71.6197 5.67075 70.8211 7.719C70.1292 9.11515 69.5452 10.564 69.0743 12.0525L69.091 11.934ZM46.1833 16.5383C46.1833 16.7753 46.1833 16.5383 46.1833 16.7245C46.1833 16.9107 46.3163 16.7245 46.3662 16.4875C46.4161 16.2505 46.3663 16.4875 46.1833 16.3859C46.0003 16.2844 46.1833 16.3859 46.1833 16.5383ZM72.8008 6.3817C72.9506 6.3817 72.9506 6.38172 73.0005 6.19552C73.0504 6.00932 73.0836 6.00929 73.0005 5.95851C72.9173 5.90772 72.8175 6.19549 72.8507 6.3817H72.8008ZM21.3124 6.3817C21.3124 6.29706 21.3124 6.29709 21.3124 6.14474C21.3124 5.99239 21.3125 6.00929 21.0796 6.00929C20.8467 6.00929 21.0795 6.33092 21.3124 6.3817ZM58.8432 17.2323C58.8432 17.4185 58.8432 17.4693 58.9929 17.5201C59.1427 17.5709 59.1261 17.5201 59.1261 17.3677C59.1261 17.2154 58.9929 17.1815 58.8432 17.2323ZM55.9319 13.4405C56.065 13.576 56.1149 13.5759 56.3977 13.5759C56.6805 13.5759 56.3978 13.4405 56.2647 13.2882L55.9319 13.4405ZM74.2315 8.54843C74.2315 8.65 74.2315 8.54843 74.2315 8.64999C74.3121 8.62232 74.3825 8.57016 74.4331 8.50054C74.4836 8.43093 74.512 8.34723 74.5143 8.26069C74.5143 8.07449 74.5143 8.2607 74.5143 8.10835C74.4312 8.20992 74.2315 8.36223 74.2315 8.54843ZM19.732 8.73466C19.915 8.73466 19.8152 8.59922 19.732 8.49765C19.6488 8.39609 19.732 8.26069 19.4492 8.26069C19.4492 8.39611 19.549 8.73466 19.6988 8.73466H19.732ZM38.2645 16.4367C38.2645 16.9107 38.6804 16.6737 38.6804 16.5383C38.6804 16.4029 38.2645 16.1997 38.2645 16.4367ZM43.0224 14.2361V14.3208C43.588 14.5747 43.6379 13.9822 43.3052 13.9822C43.2702 13.9799 43.2352 13.9847 43.202 13.9962C43.1688 14.0077 43.1383 14.0258 43.112 14.0494C43.0857 14.073 43.0643 14.1016 43.0489 14.1337C43.0335 14.1657 43.0245 14.2006 43.0224 14.2361ZM15.4399 9.29325C15.6729 9.29325 15.4399 8.7685 15.4399 8.71772C15.4399 8.66694 15.44 8.61616 15.257 8.61616C15.1572 8.90393 15.39 9.29325 15.4899 9.29325H15.4399ZM78.8064 9.29325C78.8064 9.05627 79.0559 8.81929 78.9561 8.56538C78.7731 8.56538 78.8064 8.56537 78.7731 8.71772C78.7399 8.87007 78.5236 9.24247 78.7731 9.29325H78.8064ZM33.7395 18.2141C33.9626 18.2984 34.2009 18.3331 34.4383 18.3157C34.6712 18.3157 34.588 17.9264 34.4383 17.9264C34.3002 17.9135 34.161 17.9327 34.0313 17.9826C33.9017 18.0324 33.7848 18.1116 33.6896 18.2141H33.7395ZM33.9226 16.2505C34.3884 16.2505 34.954 16.5383 34.954 16.2505C34.954 15.9628 34.0556 16.1151 33.9226 16.2505ZM55.5493 12.865V12.9666C55.932 13.0681 56.5808 13.2543 56.5808 12.9666C56.5808 12.6788 55.8321 12.8312 55.5493 12.865ZM51.357 14.6424C51.357 15.0317 51.8228 15.1841 51.8727 14.6424C51.7729 14.5578 51.773 14.5578 51.59 14.5578C51.407 14.5578 51.59 14.3546 51.59 14.2192C51.59 14.0838 51.357 14.1176 51.357 14.5916V14.6424ZM55.4495 12.391C55.8054 12.548 56.1943 12.612 56.5808 12.5772C56.5808 12.391 56.5808 12.4926 56.5808 12.2894C56.2007 12.252 55.8172 12.2865 55.4495 12.391ZM48.1962 13.1528C48.1962 13.4405 48.662 13.5929 48.8949 13.1528V13.0681C48.7618 12.9158 48.8949 12.9666 48.479 12.9666C48.0631 12.9666 48.296 13.0681 48.2461 13.1528H48.1962ZM63.1686 15.6073C63.1686 15.8443 63.4514 15.7935 63.7342 15.7935C64.017 15.7935 64.0669 15.4718 63.7342 15.421C63.4015 15.3703 63.1187 15.4211 63.1187 15.6073H63.1686ZM58.7933 16.5722C58.7933 17.1477 59.1593 16.9445 59.1593 16.7583C59.1593 16.5721 59.1593 16.0474 58.8765 16.0474C58.815 16.215 58.7867 16.3934 58.7933 16.5722ZM19.549 11.4939C19.8319 11.4092 19.7487 11.2569 19.549 10.8337C19.407 10.5705 19.2338 10.3261 19.0333 10.1058C19.0823 10.4961 19.2128 10.8713 19.416 11.2061C19.5158 11.3584 19.4159 11.4092 19.5989 11.4939H19.549ZM37.5658 13.1866C37.1332 13.1866 37.1832 13.6606 37.5658 13.6606C37.9484 13.6606 37.9817 12.8989 37.5658 12.7973V13.1866ZM51.3903 13.4744C51.3903 14.0499 51.7563 14.0838 51.7563 13.1866C51.7563 12.9327 51.7563 12.8481 51.6232 12.8481C51.4901 12.8481 51.3903 13.2205 51.3903 13.4744ZM21.0629 9.00551C21.0629 8.76853 20.83 8.29454 20.7302 7.98984C20.6304 7.68515 20.7302 7.8544 20.5971 7.75283C20.464 7.65127 20.3975 7.98981 20.5971 8.42993C20.634 8.56223 20.6784 8.69225 20.7302 8.81928C20.8799 9.05627 20.8799 9.00551 21.0629 9.00551ZM47.8968 12.6111C48.0798 12.8988 48.5955 12.7465 48.8783 12.6957V12.4587C48.5955 12.3233 47.9799 12.2725 47.8968 12.6111ZM73.4995 7.66821C73.3165 7.75285 73.2666 8.0914 73.2167 8.29453C73.1668 8.49766 72.884 9.00548 73.2167 8.87006C73.5495 8.73464 73.6492 8.14216 73.6991 7.95596C73.7491 7.76975 73.6992 7.70207 73.5494 7.66821H73.4995ZM74.348 11.3584C74.6308 11.3584 74.5809 11.3584 74.8138 10.8337C74.8995 10.7151 74.9668 10.5837 75.0134 10.4443C75.0413 10.3774 75.0557 10.3054 75.0557 10.2327C75.0557 10.16 75.0413 10.0881 75.0134 10.0211C74.6599 10.3924 74.4126 10.8548 74.2981 11.3584H74.348ZM50.1093 24.4096C50.1093 24.9852 50.5751 24.9344 50.5751 24.5451C50.5751 24.1557 50.5752 23.8341 50.2924 23.8341C50.0095 23.8341 50.1093 24.2234 50.1093 24.4096ZM62.3201 16.3013C62.42 16.4367 62.5198 16.4029 62.9357 16.4367C63.0355 16.4367 63.9671 16.6907 63.9671 16.3521C63.9671 16.0135 63.4514 16.2505 62.8358 16.2505C62.553 16.2505 62.553 16.2505 62.3201 16.2505V16.3013ZM42.2738 13.4744C43.1721 13.4744 43.6047 13.7622 43.6047 13.339C43.6047 12.9158 42.6065 13.339 42.2738 13.4405V13.4744ZM33.3735 16.8599V16.9954H34.1222C34.5048 16.9954 34.7377 16.9953 34.7377 16.7583C34.7377 16.5214 34.3052 16.6229 34.1222 16.6568C33.8695 16.7117 33.6196 16.7795 33.3735 16.8599ZM33.0408 17.5201C33.1739 17.7232 33.2238 17.5201 33.7063 17.6217H34.5547C34.7876 17.6217 34.8708 17.0969 33.6564 17.3847L33.0408 17.5201ZM71.1871 15.9458C71.1871 16.0474 71.1871 15.9458 71.1871 16.132C71.5698 16.2844 71.7029 15.9458 71.7528 15.7935C71.7596 15.6609 71.7199 15.5301 71.6406 15.4247C71.5613 15.3192 71.4478 15.2459 71.3202 15.2179C71.1998 15.4409 71.1368 15.6913 71.1372 15.9458H71.1871ZM31.4771 15.1333C31.2442 15.1333 31.2941 15.0317 31.1111 14.9302C30.8283 15.6073 31.8097 15.7935 31.8097 15.2179C31.8018 15.067 31.7478 14.9224 31.6554 14.8041C31.563 14.6858 31.4367 14.5997 31.294 14.5578C31.4141 14.7247 31.4783 14.9265 31.4771 15.1333ZM31.0612 13.3051C31.0612 13.5929 31.0611 13.7283 31.3439 13.7791C31.6268 13.8298 31.527 13.5929 31.527 12.9158C31.527 12.4926 31.0612 12.4926 31.0612 13.3051ZM62.4699 17.6217C62.6029 17.774 62.9856 17.8078 63.2684 17.8586C63.5512 17.9094 64.017 17.8587 64.017 17.6725C64.017 17.4862 63.651 17.5201 63.3682 17.5201C63.0854 17.5201 62.7527 17.4355 62.4699 17.6217ZM41.808 12.8311C41.808 12.9665 41.9577 12.8311 42.1906 12.8311C42.9891 12.8311 43.5547 13.0343 43.5547 12.6449C43.5547 12.2556 42.7562 12.4926 42.5566 12.5434L41.808 12.8311ZM46.2831 14.8455C46.3829 14.8455 46.2831 14.8455 46.5326 14.8455V15.0994C46.1999 15.0994 46.4328 15.0994 46.15 14.9979C45.8172 15.6242 46.8986 15.7088 46.8986 14.9979C46.8986 14.2869 46.8986 14.5578 46.5659 14.507C46.2331 14.4562 46.333 14.507 46.2831 14.7101V14.8455ZM22.3772 15.895C22.3772 16.3351 22.9428 16.7583 23.0426 15.895C23.0426 15.7427 23.1424 15.3195 22.8929 15.3195C22.7561 15.3195 22.6249 15.3748 22.5282 15.4732C22.4315 15.5716 22.3772 15.7051 22.3772 15.8442V15.895ZM61.9541 16.7076C62.0883 16.81 62.2523 16.8636 62.4199 16.8599C62.591 16.8842 62.7646 16.8842 62.9357 16.8599C63.2911 16.9356 63.654 16.9697 64.017 16.9615C64.0437 16.8848 64.0437 16.8012 64.017 16.7245C63.327 16.5439 62.6079 16.5094 61.9042 16.6229L61.9541 16.7076ZM37.3828 15.2179C37.3659 15.4027 37.3945 15.5889 37.466 15.7596C37.6656 16.1828 38.0316 15.895 38.0316 15.6581L37.8985 15.0825C37.7488 14.3546 37.3828 14.6932 37.3828 15.2179ZM17.7856 12.1032C17.9354 11.8663 17.5028 11.2907 17.2699 10.7659L16.5712 9.51332C16.7689 10.3552 17.0826 11.1645 17.5028 11.9171C17.6026 12.0525 17.5028 12.1032 17.7856 12.1032ZM20.8965 11.8155C21.0463 11.6631 21.0463 11.6631 20.8965 11.4769L20.7635 11.1891L20.1479 9.90267C20.0733 9.66487 19.9419 9.4496 19.7653 9.27631C19.9228 9.97476 20.163 10.6512 20.4806 11.2907C20.5638 11.5277 20.6137 11.7139 20.8466 11.8155H20.8965ZM73.0504 11.6631C73.2999 11.6631 73.2999 11.6631 73.4829 11.2907C73.8114 10.6347 74.0627 9.94148 74.2315 9.22553C74.0485 9.22553 74.1484 9.22555 74.0485 9.41176L73.6326 10.3766C73.4864 10.5639 73.3737 10.7759 73.2999 11.003C73.1526 11.192 73.0656 11.4223 73.0504 11.6631ZM76.3776 12.0525C76.5606 11.9509 76.5273 11.9509 76.5605 11.8155L77.043 10.8506C77.1262 10.6644 77.226 10.4782 77.3258 10.2243C77.4256 9.97039 77.5088 9.69953 77.5587 9.46254H77.409L76.3277 11.7139C76.3277 11.917 76.3277 11.8663 76.3277 12.0525H76.3776ZM29.4142 20.2624C29.7469 20.4486 29.7802 20.4993 29.9299 20.0254C30.0453 19.8019 30.0917 19.5482 30.063 19.2975C30.063 19.0605 29.5472 18.2988 29.4641 19.4498L29.4142 20.2624ZM58.9264 13.4913C58.8417 14.0523 58.8417 14.6231 58.9264 15.1841C58.9264 15.3872 58.9264 15.4718 59.176 15.5226C59.176 15.2856 59.2591 14.9979 59.309 14.7609V14.3715C59.309 13.9314 59.4587 14.3715 59.4587 13.796C59.4587 13.4575 59.2092 13.4574 58.9763 13.5082L58.9264 13.4913ZM46.1001 12.8142C46.5825 12.9158 46.4827 13.3051 46.2997 13.3051C46.1167 13.3051 46.2997 13.0174 45.8672 13.0174C45.832 13.1561 45.832 13.3018 45.8672 13.4405C45.8868 13.527 45.9361 13.6036 46.0062 13.6563C46.0764 13.7091 46.1628 13.7346 46.2498 13.7283C46.4827 13.7283 46.9984 13.3051 46.9984 13.102C47.0088 13.0076 46.9938 12.9122 46.9551 12.8259C46.9163 12.7395 46.8553 12.6655 46.7784 12.6116C46.7016 12.5578 46.6119 12.5261 46.5188 12.5201C46.4257 12.514 46.3327 12.5338 46.2498 12.5772C46.1 12.6788 46.15 12.5772 46.15 12.8142H46.1001ZM77.1761 12.8142L77.7417 11.697C78.0507 11.0324 78.3174 10.3482 78.5402 9.64872H78.4072C78.2968 9.92761 78.169 10.199 78.0245 10.4613L77.226 12.154C76.8933 12.7296 76.8434 12.6788 77.226 12.8819L77.1761 12.8142ZM22.2774 12.1371C22.7432 12.1371 22.1276 11.3246 21.8448 10.6983L21.3291 9.54716C21.3291 9.36095 21.3291 9.25942 21.0962 9.25942C20.9132 9.54719 21.8947 11.3754 22.0777 11.7986C22.0777 11.9509 22.0777 12.1371 22.2774 12.1371ZM71.6862 11.9509C71.6862 11.9509 71.8859 12.1879 72.0688 11.7478C72.0688 11.6124 72.1687 11.5616 72.2186 11.4092L72.8673 9.97035C73.0037 9.7024 73.083 9.40829 73.1003 9.10707C72.8175 9.10707 72.9173 9.10707 72.6345 9.73339L71.6862 11.9509ZM75.5624 11.6631C75.945 11.5615 76.5107 9.97035 76.5938 9.49638L76.7935 8.87006C76.7935 8.73464 76.7935 8.87008 76.7935 8.73466L75.5624 11.3246C75.4626 11.5108 75.4626 11.5615 75.5624 11.6631ZM16.9871 12.8988C17.1368 12.8988 17.1368 12.8988 17.1867 12.7126C17.111 12.4442 16.9991 12.1879 16.854 11.9509L16.0888 10.512C15.953 10.2421 15.8308 9.96524 15.7228 9.68261C16.0298 10.8054 16.4712 11.8855 17.037 12.8988H16.9871ZM18.6507 11.697C18.6245 11.4221 18.5269 11.1591 18.3679 10.9352C18.2851 10.6696 18.1735 10.414 18.0352 10.1735C17.9001 9.94534 17.7939 9.70079 17.7191 9.4456C17.6193 9.25939 17.4696 8.87008 17.2866 8.78544C17.3912 9.36869 17.5643 9.93702 17.8023 10.4782C17.8995 10.7216 18.0106 10.9589 18.135 11.1891C18.2134 11.3096 18.275 11.4407 18.318 11.5785C18.4677 11.7647 18.4178 11.7647 18.6507 11.7139V11.697ZM70.3387 12.2725C70.6714 12.2725 70.8045 11.7478 71.054 11.3246C71.4223 10.5414 71.75 9.73902 72.0355 8.92084C72.2277 8.50019 72.3406 8.04656 72.3683 7.58355L70.4385 11.697C70.2389 12.0863 70.2056 12.0863 70.3387 12.2725ZM21.6285 7.51587C21.8228 8.43948 22.107 9.34109 22.477 10.2074C22.66 10.5798 22.8596 10.9691 23.0426 11.3923C23.2256 11.8155 23.5084 12.5941 23.7912 12.3064C24.074 12.0186 23.708 11.934 23.6082 11.7308L22.7598 10.0381C22.4419 9.19842 22.0638 8.3837 21.6285 7.60049V7.51587ZM15.8558 13.796C16.0388 13.796 15.9557 13.796 16.0888 13.6606C16.0577 13.5589 16.0129 13.462 15.9557 13.3728C15.5231 12.6957 14.2921 9.63179 13.9261 8.9039L13.7431 8.61616C14.1217 10.2281 14.7209 11.778 15.5231 13.2205C15.5923 13.4343 15.7058 13.6306 15.8558 13.796ZM77.9579 13.559C77.9579 13.6944 78.1077 13.6944 78.2408 13.6944C78.3044 13.6066 78.3549 13.5096 78.3905 13.4067L78.8064 12.5434C79.4984 11.3097 79.9767 9.96405 80.2205 8.56538C80.0874 8.71773 79.7547 9.6318 79.6549 9.81801C79.3388 10.6305 78.9562 11.5108 78.5735 12.3064C78.4737 12.5095 77.9579 13.4574 77.9579 13.559ZM16.9871 22.92C17.1907 23.2056 17.4313 23.4618 17.7025 23.6817C17.8022 23.6709 17.8974 23.6341 17.9791 23.5748C18.0607 23.5154 18.1259 23.4357 18.1683 23.3432L18.5842 22.9708L20.3309 21.278C20.4853 21.1666 20.63 21.0421 20.7635 20.9056C21.4289 20.3301 21.2792 20.5163 20.8633 19.9915C20.7749 19.8434 20.6624 19.7118 20.5306 19.6022C20.2977 19.6022 20.2477 19.7884 20.0481 19.9407L17.8355 22.0059C17.7024 22.1413 16.9871 22.7168 16.9871 22.8692V22.92ZM47.5474 32.0271C47.5474 33.1443 47.5474 32.8058 48.7286 32.8058C48.7286 33.1782 48.7286 33.3813 48.7286 33.7537L48.8616 36.259C48.8616 36.7329 48.8616 36.6314 49.6602 36.6314C50.2258 36.6314 50.0428 36.3436 50.0428 35.4465L49.8598 33.2289V32.7042C51.1241 32.7042 50.9411 32.7042 50.9411 32.0271C50.9411 31.3499 50.7581 31.6885 50.3256 31.6885L48.3459 31.7901C48.0631 31.7901 47.4975 31.7901 47.4975 32.0271H47.5474ZM76.9764 18.4849L75.4126 18.011C74.8969 17.8078 74.9968 18.011 74.5143 18.5357C74.4192 18.6547 74.3717 18.8058 74.3812 18.9589C74.7829 19.09 75.1947 19.1862 75.6123 19.2467C76.3438 19.3946 77.066 19.5868 77.775 19.8222C78.9561 20.7363 78.8064 20.8887 79.2889 20.2624C79.7713 19.6361 79.7547 19.8222 78.6234 19.0097C78.4552 18.8965 78.3087 18.7531 78.1909 18.5865L77.0263 16.3182C76.9421 16.2566 76.8737 16.1753 76.8267 16.0812C76.5938 15.6073 76.494 15.895 76.128 16.4198C75.762 16.9445 75.9783 16.7584 76.128 17.0969C76.2778 17.4355 76.4108 17.5709 76.494 17.7571C76.6527 17.9905 76.7971 18.2335 76.9265 18.4849H76.9764ZM26.8523 31.0622C26.8523 31.2992 27.6508 31.6377 27.7839 31.6716L28.7321 29.9788C28.965 29.9788 29.2478 30.2158 29.4308 30.3174C29.5656 30.3626 29.6943 30.4251 29.8135 30.5036C30.2793 30.7913 30.3291 30.6559 30.612 30.1312C30.7118 29.8942 30.612 29.8434 30.3292 29.6402L29.2478 29.0309C29.3852 28.8017 29.4969 28.5576 29.5805 28.303C29.9133 28.303 30.8948 29.0309 31.2441 29.0647C31.4627 28.8742 31.6289 28.6292 31.7266 28.3538C31.7266 28.1676 30.7284 27.7274 30.4955 27.5412C30.0562 27.2847 29.6005 27.0585 29.1314 26.8641C28.9136 27.1849 28.7243 27.5248 28.5658 27.8798C28.416 28.1676 26.9022 30.8421 26.9022 31.0453L26.8523 31.0622ZM60.7564 29.0309C60.7829 29.2323 60.8449 29.4273 60.9394 29.6064C61.4052 30.5205 61.9375 31.8747 62.4533 32.8734C62.6362 33.2628 62.4532 33.2628 62.736 33.3982C63.0188 33.5336 63.1519 33.2628 63.3516 33.1612L65.2813 32.1963C65.2813 32.0101 65.0485 31.3838 64.8987 31.3838C64.749 31.3838 63.5845 32.0102 63.3516 32.0102C63.2517 31.7224 63.0189 31.333 62.969 31.0961L63.9505 30.6221C64.1501 30.6221 64.2832 30.5205 64.2832 30.3343L64.1501 29.9958C63.9172 29.5726 63.9505 29.5218 63.2018 29.8942C62.9771 30.0237 62.7436 30.1368 62.5032 30.2327C62.5032 29.8942 62.2203 29.6064 62.2203 29.3694L63.3017 28.8955C63.7675 28.6585 63.6344 28.7092 63.4348 28.2183C63.4348 27.9813 63.4347 27.9813 63.2018 27.8459C62.3653 28.1936 61.5489 28.5892 60.7564 29.0309ZM69.0743 23.9526C69.0743 24.1388 69.6067 24.7143 69.7398 24.9005L70.921 26.3056C71.104 26.4918 71.9524 27.6428 72.152 27.6428C72.5638 27.3854 72.9436 27.0785 73.2832 26.7287C74.2149 25.8147 74.4977 26.0178 74.0319 25.3914C73.5661 24.7651 73.6492 25.0021 73.0337 25.6284L72.7176 25.8654C72.6252 25.9683 72.5116 26.0492 72.3849 26.1024C72.1374 25.873 71.9143 25.6177 71.7195 25.3407C71.8193 25.3407 72.518 24.6635 72.7176 24.5281C72.9173 24.3927 72.7176 24.1388 72.4681 23.851C72.2186 23.5633 72.2352 23.614 71.7195 24.1388L71.054 24.6128C71.054 24.4774 70.688 24.1896 70.5383 23.9526C70.9724 23.6333 71.3687 23.2641 71.7195 22.8523C71.7195 22.7507 71.5365 22.5645 71.4866 22.4629C71.4367 22.3614 71.3036 21.8874 70.3553 22.8015L70.1224 23.0385C69.7539 23.3197 69.4038 23.6251 69.0743 23.9526ZM22.2108 27.7951C22.2108 27.9306 22.5435 28.1168 22.7265 28.2691L24.1905 29.3694C24.5565 29.6572 24.6064 29.471 24.7561 29.234C24.9058 28.997 25.0888 28.7939 24.7561 28.5569L23.708 27.7444C23.9169 27.4888 24.106 27.2172 24.2737 26.9319C24.6768 27.2547 25.1052 27.5434 25.5546 27.7951C25.7611 27.5991 25.9353 27.3705 26.0704 27.118C25.7298 26.7481 25.3305 26.4391 24.8892 26.2039C25.0389 25.9162 25.2219 25.6792 25.3716 25.4422C25.6108 25.565 25.8297 25.7249 26.0205 25.9162C26.2419 26.0897 26.4819 26.2374 26.7358 26.3563C26.9533 26.1508 27.1286 25.9033 27.2515 25.6284C26.7205 25.1795 26.1651 24.7613 25.5879 24.3758C24.8227 23.7495 25.0722 23.851 24.257 24.9005L23.6082 25.8654C23.0942 26.4751 22.6217 27.1198 22.1942 27.7951H22.2108ZM39.4623 35.7511C39.4623 35.9374 39.8449 35.9373 40.0778 35.9881L41.5917 36.2251C41.822 36.2754 42.0602 36.2754 42.2904 36.2251C42.5733 35.1248 42.5233 35.311 41.6416 35.1756C41.3474 35.0971 41.0466 35.0461 40.7433 35.0233C40.7433 34.9386 40.8265 34.6001 40.8764 34.4477C40.9263 34.2954 40.7932 33.9738 41.1093 34.0245C42.5233 34.2615 42.3902 34.4139 42.5233 33.686C42.6564 32.9581 42.3403 33.3474 41.076 33.0597C41.0959 32.7518 41.1403 32.4461 41.2091 32.1456C41.7073 32.2658 42.2132 32.3506 42.7229 32.3995C42.9559 32.3995 42.9559 31.5192 42.9559 31.5192C42.9559 31.5192 42.6731 31.3838 42.4901 31.3838C42.3193 31.3206 42.1394 31.2863 41.9577 31.2822L40.2941 30.9945C40.0612 30.9945 40.0612 31.1469 40.0612 31.3838C40.0612 31.6208 39.3958 35.311 39.3958 35.7004L39.4623 35.7511ZM14.0924 19.1451C14.1762 19.3111 14.289 19.4603 14.4252 19.5853C14.5233 19.7657 14.6529 19.9263 14.8078 20.0593C15.2237 19.8223 15.8891 19.1451 16.122 19.1451C16.3549 19.1451 17.0703 20.4993 17.7856 20.4993C17.9068 20.5107 18.0289 20.4954 18.1437 20.4545C18.2585 20.4136 18.3633 20.3481 18.4511 20.2624C19.3993 19.5345 20.1147 19.0944 18.8337 17.4185L18.4012 16.843C17.8854 16.0812 18.0185 16.0304 16.8873 16.9445L15.0573 18.3834C14.7745 18.6204 14.3919 18.8574 14.1091 19.1451H14.0924ZM16.8374 18.4849C17.1202 18.3326 17.586 17.9094 17.8688 17.7063C17.8688 17.9941 18.2847 18.1972 18.3346 18.5696C18.3845 18.942 17.7191 19.2467 17.6858 19.2467C17.6525 19.2467 16.9705 18.6711 16.8374 18.4849ZM45.7341 35.0402C45.7341 35.3618 45.7341 35.6496 45.2183 35.6496C44.2368 35.6496 44.7027 34.8371 44.5197 34.6509C44.2247 34.5843 43.9235 34.5502 43.6213 34.5493C43.3385 34.5493 43.3884 35.1248 43.3884 35.4126C43.3884 36.9022 46.9652 37.19 46.9652 35.4126C46.9652 34.6508 46.9651 34.2276 46.0169 33.7198C45.4513 33.5336 44.7525 33.3813 44.7525 33.0089C44.7525 32.6365 45.1185 32.5687 45.3681 32.5687C45.6176 32.5687 45.6509 32.6703 45.784 32.755C45.784 33.4321 45.784 33.3305 46.2165 33.3305C47.065 33.3305 47.0151 33.5844 47.0151 32.7211C47.0151 31.8578 46.1666 31.6039 45.4513 31.6039C44.7359 31.6039 44.2369 31.6039 43.7877 32.1286C43.6047 32.4333 43.3218 33.5844 44.0705 34.0584C44.4531 34.3462 45.7341 34.6847 45.7341 35.0233V35.0402ZM30.7617 32.1963C30.753 32.4566 30.8193 32.7138 30.9523 32.9364C31.0852 33.1589 31.2792 33.337 31.5103 33.449C32.1758 33.8383 33.307 34.2108 33.9725 33.6014C34.1395 33.3478 34.2633 33.0674 34.3385 32.7719C34.5714 32.1963 34.8209 31.6716 35.0039 31.0791C35.099 30.946 35.165 30.7936 35.1974 30.6323C35.2297 30.471 35.2277 30.3045 35.1915 30.1441C35.1552 29.9836 35.0855 29.8329 34.9872 29.7022C34.8888 29.5715 34.764 29.4638 34.6212 29.3863C34.1055 28.9462 32.4586 28.2861 31.8431 29.234C31.6865 29.5252 31.5583 29.8314 31.4604 30.1481C31.1848 30.7861 30.9514 31.4421 30.7617 32.1117V32.1963ZM31.9429 32.2979C32.1963 31.5293 32.4963 30.7774 32.8412 30.0465C32.9355 29.9691 33.0487 29.9193 33.1688 29.9026C33.2888 29.8858 33.4111 29.9028 33.5224 29.9516C33.6337 30.0004 33.7297 30.0791 33.8002 30.1794C33.8708 30.2796 33.9131 30.3976 33.9226 30.5205C33.9226 30.7067 33.3569 32.0101 33.2571 32.2979C33.1573 32.5857 33.0741 32.9242 32.6415 32.8227C32.209 32.7211 31.9429 32.5857 31.9429 32.2979ZM56.8968 30.419C56.9669 30.8137 57.0785 31.1996 57.2295 31.57L57.9948 33.8891C58.0283 34.0727 58.0901 34.2498 58.1778 34.4139C58.1912 34.5158 58.2252 34.6138 58.2776 34.7016C58.3608 35.1248 58.4107 34.8878 58.4606 34.9386H58.5604L58.9264 34.7863C59.5919 34.6001 59.5419 34.7863 59.2092 33.7368C59.0707 33.484 58.9751 33.2093 58.9264 32.9242C59.08 32.8612 59.2433 32.8268 59.4088 32.8227C59.4088 32.975 60.2074 33.7876 60.2905 33.9738C60.3737 34.16 60.5401 34.2615 60.9061 34.1261C61.8543 33.8383 61.8044 33.923 61.1889 33.1612L60.5734 32.3995C60.4902 32.2979 60.4403 32.2979 60.3904 32.1963C61.2388 31.6208 60.6233 30.1312 60.1076 29.8434C59.5919 29.5557 58.5604 29.8434 57.9948 29.9958C57.845 29.9958 56.8968 30.2835 56.8968 30.419ZM58.3109 30.9098C58.6935 30.9098 59.5919 30.2835 59.5919 31.4346C59.5919 31.7224 58.8765 31.9086 58.5937 31.9594C58.4777 31.616 58.3832 31.2654 58.3109 30.9098ZM35.0205 34.6001C35.0205 34.7863 35.0205 34.7524 35.1702 34.7863C35.2815 34.7967 35.3893 34.8314 35.4863 34.8878C36.2016 35.074 36.1018 35.1248 36.3347 34.2107C36.4346 33.8891 36.5344 33.6013 36.5843 33.3474H37.0002C37.0066 33.6098 37.0401 33.8708 37.1 34.1261C37.1832 35.1756 37.1 35.2772 37.5658 35.4126C38.4641 35.6496 38.4641 35.6496 38.3643 35.1248C38.2645 34.6001 38.2313 33.6352 38.1814 33.4321C38.362 33.4266 38.5384 33.3758 38.6951 33.2843C38.8518 33.1927 38.9839 33.0633 39.0797 32.9073C39.2356 32.5067 39.3309 32.0843 39.3625 31.6546C39.3625 30.5882 37.6989 30.3004 36.9503 30.0634C36.2016 29.8265 36.3347 29.5387 35.5362 32.4164L35.0205 34.6001ZM37.6157 32.5349C37.361 32.4969 37.1103 32.4346 36.8671 32.3487C36.9316 31.9857 37.0262 31.629 37.1499 31.2822C37.3591 31.3367 37.5647 31.4046 37.7655 31.4854C37.8804 31.5281 37.9773 31.6097 38.04 31.7165C38.1027 31.8234 38.1273 31.9489 38.1098 32.072C38.0922 32.1952 38.0335 32.3085 37.9435 32.3927C37.8535 32.477 37.7378 32.5272 37.6157 32.5349ZM71.8027 21.6505C72.0476 21.9421 72.3146 22.2137 72.6012 22.4629L74.7805 24.5281C74.8844 24.7073 75.0507 24.8402 75.2463 24.9005C75.4293 24.8159 75.9616 24.325 75.9949 24.088C75.762 23.7494 75.2962 23.4278 75.1132 23.1739C74.9302 22.92 74.8637 22.9877 74.8304 22.8861C74.898 22.7718 74.976 22.6641 75.0633 22.5645C75.3461 22.5645 76.3776 23.1739 76.8101 23.2247C77.1329 22.9972 77.405 22.703 77.6086 22.3614C77.3567 22.1636 77.0681 22.0197 76.7602 21.9382C76.4354 21.8026 76.1019 21.6895 75.762 21.5996C75.8141 21.4463 75.8476 21.2872 75.8618 21.1257C75.8618 20.4993 75.4293 20.2624 75.1132 19.9238C74.2149 19.0097 73.2666 20.0085 72.701 20.584L71.8027 21.6505ZM74.0651 22.1752C73.9311 22.0766 73.8083 21.963 73.6991 21.8366C73.5479 21.7335 73.4179 21.6012 73.3165 21.4473L73.5993 21.0749C74.2648 20.3978 74.6807 21.0749 74.6807 21.3119C74.6807 21.5489 74.2648 21.9382 74.0651 22.1752ZM52.7544 31.3838L53.5031 34.9386C53.5169 35.3288 53.6316 35.7084 53.8358 36.0389C54.1741 36.0135 54.5088 35.9511 54.8339 35.8527C55.4483 35.7825 56.0425 35.5867 56.5808 35.2772C56.8223 35.0367 56.9767 34.7201 57.019 34.379C57.0613 34.0378 56.9889 33.6922 56.8136 33.3982C56.6219 33.1617 56.3477 33.01 56.0484 32.975C56.2979 32.5857 56.5308 32.4841 56.248 31.57C55.9652 30.6559 54.5844 30.9098 53.8857 31.0453L52.9874 31.2484C52.8543 31.2484 52.9874 31.2484 52.7544 31.3838ZM54.1685 31.9594C54.5844 31.9594 55.1999 31.6208 55.1999 32.4502C55.1999 32.8226 54.6343 32.8734 54.3016 32.975C54.3016 32.738 54.1685 32.1964 54.1685 31.9594ZM54.5013 33.8383C54.834 33.8383 55.5326 33.4998 55.7656 33.8383C56.0484 34.617 55.2499 34.7524 54.6842 34.7524C54.6474 34.4154 54.5863 34.0816 54.5013 33.7537V33.8383ZM22.0611 24.4773L22.4271 22.5137C22.6267 21.6504 22.7598 21.7351 22.1942 21.3119C21.6285 20.8887 22.0112 20.8379 21.013 21.8366L19.0333 24.0372C18.5675 24.5281 18.5675 24.6128 19.0333 24.9005C19.4991 25.1883 19.3162 25.4422 19.8818 24.9005C20.2145 24.6128 20.83 23.7833 21.1627 23.5463L20.5971 26.0008C20.5971 26.2378 20.4973 26.3394 20.5971 26.4748C20.7995 26.6739 21.0226 26.8498 21.2625 26.9995C21.5454 26.9995 21.5786 26.7626 21.7283 26.6271L22.9095 25.2729C22.9958 25.223 23.0743 25.1603 23.1424 25.0868C23.4252 24.7482 24.3735 23.6987 24.5066 23.394L23.941 22.8523C23.8411 22.7677 23.9409 22.7676 23.7579 22.7169C23.3753 22.9538 22.4271 24.2065 22.0943 24.4096L22.0611 24.4773ZM68.7417 27.6428C68.1364 26.9666 67.492 26.3279 66.8119 25.73C66.4282 25.8063 66.0883 26.0308 65.8636 26.3563C65.8636 26.5425 66.6122 28.6077 66.6622 28.8447C66.3793 28.6585 64.9986 27.1519 64.7324 27.1519C64.4662 27.1519 63.9338 27.592 63.834 27.7275C64.1563 28.1465 64.5185 28.532 64.9153 28.8785C65.0651 29.0309 65.1483 29.0647 65.298 29.2171L66.8119 30.7067C66.9254 30.8286 67.0478 30.9418 67.1779 31.0453C67.3775 31.2315 67.5106 31.0453 67.6603 31.0453C68.5088 30.4697 68.4089 31.0452 67.6603 28.54L67.4773 27.9644L68.9246 29.4033C69.2573 29.6911 69.3073 29.9788 69.7731 29.6911C70.5882 29.1663 70.4884 29.5049 69.9727 27.829L68.9246 24.799C68.7915 24.3758 68.6418 24.6128 68.359 24.799C68.254 24.9154 68.1302 25.0127 67.993 25.0868C68.0461 25.5709 68.1694 26.0444 68.359 26.4917C68.359 26.7287 68.5087 26.9149 68.5586 27.1519L68.7417 27.6428ZM50.2258 13.339C50.1516 14.1559 50.263 14.9793 50.5514 15.7454C50.8399 16.5115 51.2977 17.1998 51.8894 17.7571C52.0894 17.9188 52.2784 18.0941 52.455 18.2818C52.6512 18.4556 52.8098 18.6688 52.9208 18.9081C53.1087 19.2093 53.2085 19.5586 53.2085 19.9153C53.2085 20.272 53.1087 20.6214 52.9208 20.9225C52.2221 21.8366 50.858 21.4981 50.858 22.2598C50.858 22.6999 50.9911 22.9369 51.4236 22.9369H55.1001C55.3829 22.9369 55.516 22.9369 55.7989 22.9369C56.0817 22.9369 56.8469 23.1231 56.8469 22.3614C56.8469 21.5996 56.2813 21.8874 55.4329 21.4473C55.1152 21.3393 54.8455 21.1201 54.6719 20.8287C54.4982 20.5373 54.4319 20.1926 54.4846 19.8561C54.4846 18.705 55.516 18.1634 55.7989 17.9941L56.3146 17.4693C57.0243 16.57 57.4221 15.457 57.4458 14.3038C57.5018 12.8987 57.2281 11.5003 56.6473 10.2243C56.4009 9.69396 56.0054 9.24994 55.5108 8.94858C55.0162 8.64723 54.4448 8.5021 53.8691 8.53154C53.5632 8.5284 53.2591 8.57996 52.9707 8.68388L52.2221 8.97162C52.1456 9.05794 52.048 9.1222 51.9393 9.15785L51.6066 9.36098C51.1655 10.0201 50.8288 10.7455 50.6084 11.5108C50.4621 12.1106 50.3675 12.7224 50.3256 13.339H50.2258ZM54.0521 8.97162C54.6111 8.95542 55.1543 9.16192 55.5659 9.54716C55.6491 9.64872 55.7989 9.78416 55.7989 9.93651H51.7397C51.9227 9.25941 53.3034 9.0224 54.0521 9.0224V8.97162ZM51.0409 11.6631C51.0409 11.3246 51.4569 10.2581 51.7397 10.2581C52.0225 10.2581 55.8487 10.2581 56.0317 10.3597C56.2147 10.4613 56.4975 11.5108 56.5974 11.697C56.0816 11.697 55.0835 11.5615 54.2351 11.5615H52.821C52.1722 11.5615 51.6398 11.6631 51.0409 11.6631ZM50.7083 14.1515C50.6695 13.6365 50.6974 13.1186 50.7914 12.6111C50.8912 12.1371 50.7914 12.0863 51.1242 12.0355C52.724 11.9001 54.3321 11.9001 55.9319 12.0355C56.1198 12.0579 56.3096 12.0579 56.4975 12.0355C56.7804 12.0355 56.7471 12.0355 56.7804 12.3741C56.9636 13.1203 56.9961 13.8966 56.876 14.656C56.7559 15.4154 56.4856 16.1421 56.0816 16.7922C55.8769 17.119 55.6044 17.3964 55.2831 17.6047C54.8594 17.8751 54.3693 18.0185 53.8691 18.0185C53.3689 18.0185 52.8788 17.8751 52.455 17.6047C51.924 17.1801 51.4921 16.6412 51.1901 16.0265C50.888 15.4119 50.7235 14.7369 50.7083 14.0499V14.1515ZM51.224 22.209C51.5182 22.1524 51.8036 22.0556 52.0724 21.9213C52.3473 21.8397 52.6027 21.7012 52.8226 21.5145C53.0424 21.3278 53.222 21.0969 53.3501 20.8363C53.4781 20.5756 53.5519 20.2909 53.5668 19.9999C53.5817 19.7089 53.5373 19.4179 53.4365 19.1451C53.3555 18.9605 53.2941 18.7676 53.2536 18.5696C53.4865 18.5696 53.5364 18.5696 53.7693 18.5696C53.9564 18.5368 54.1477 18.5368 54.3349 18.5696C54.3349 18.7558 54.1519 18.8574 54.102 19.0944C53.9699 19.3804 53.9015 19.6925 53.9015 20.0085C53.9015 20.3245 53.9699 20.6365 54.102 20.9225C54.305 21.2395 54.5743 21.507 54.8907 21.706C55.207 21.905 55.5625 22.0305 55.9319 22.0736C56.1316 22.0736 56.4144 22.3614 56.0816 22.4122H53.8192H53.1038H52.3552C51.3071 22.4122 51.1741 22.5645 51.1741 22.1752L51.224 22.209ZM44.7692 9.97035C44.8201 10.2553 44.8479 10.5441 44.8524 10.8337C44.8524 11.223 44.8524 11.4092 44.8524 11.8493V12.2725C44.9098 12.7501 44.9432 13.2304 44.9522 13.7114C44.9522 14.3377 45.0853 15.8273 45.1352 16.5044L45.2849 18.9081C45.2849 19.0943 45.2849 19.0943 45.2849 19.3313C45.2601 19.6525 45.2601 19.9751 45.2849 20.2962C45.4845 21.7858 45.1518 23.5632 46.1833 23.8849C46.516 23.9864 46.516 23.8849 46.516 24.2742C46.516 25.4253 45.4845 25.0867 45.0021 25.3745C44.5196 25.6623 44.3034 26.3394 45.2849 26.3394C45.6176 26.3394 45.9004 26.3394 46.2831 26.3394H48.2461C48.6951 26.369 49.1457 26.3174 49.577 26.187C49.8099 26.0008 49.943 25.3237 48.7286 25.1883C48.113 25.0868 47.9134 24.9005 47.9134 24.325C47.9134 23.7495 48.113 23.9357 48.3958 23.8002C49.1444 23.4109 49.0946 21.7859 49.1445 20.9564C49.1445 20.7194 49.1445 20.7194 49.1445 20.5332V20.0085C49.2942 18.4681 49.2942 16.3521 49.4272 15.1164L49.5271 13.1866C49.5271 12.7634 49.6103 12.2218 49.6103 11.7478V10.7491C49.5884 10.6032 49.5884 10.4548 49.6103 10.3089C49.6103 10.2074 50.126 9.4456 48.8949 8.87006C48.2572 8.57386 47.5526 8.45841 46.8557 8.53588C46.1588 8.61335 45.4954 8.88087 44.9356 9.3102C44.8414 9.38117 44.764 9.47277 44.7093 9.57826C44.6546 9.68374 44.6239 9.80038 44.6195 9.91957L44.7692 9.97035ZM45.4679 10.1735L48.5289 10.0719C48.7618 10.0719 49.3773 10.1735 49.3773 9.88573C49.3773 9.59796 48.9116 9.3102 48.6288 9.15785C48.1351 8.98795 47.6119 8.92576 47.093 8.97534C46.5742 9.02493 46.0715 9.18514 45.6176 9.4456C45.5359 9.50689 45.4681 9.58562 45.4193 9.67625C45.3704 9.76688 45.3416 9.86722 45.3348 9.97035C45.3348 9.97035 45.418 10.1227 45.4679 10.1735ZM49.0447 11.8662C48.4191 11.9178 47.7904 11.9178 47.1648 11.8662H45.7008C45.2849 11.8662 45.3681 11.9678 45.3681 10.6644C45.3681 10.4782 45.8505 10.5798 46.2664 10.5798H46.7821C46.9419 10.5529 47.1049 10.5529 47.2646 10.5798C47.7523 10.6052 48.2409 10.6052 48.7286 10.5798C49.1445 10.5798 49.0946 10.292 49.0946 11.3415C49.0946 11.6293 49.0946 11.6801 49.0946 11.9678L49.0447 11.8662ZM47.9633 12.2048C48.322 12.1536 48.686 12.1536 49.0447 12.2048L48.9614 13.4574C48.9614 13.7452 48.9614 14.27 48.9614 14.7947L48.8616 16.4875C48.8616 16.8768 48.8616 17.0123 48.8616 17.4016C48.8616 18.5019 48.8616 19.8561 48.8616 20.9564C48.8368 21.2606 48.8368 21.5663 48.8616 21.8705C48.8616 22.9708 48.8616 23.5632 47.8136 23.5632H46.9652C46.0835 23.5632 46.1167 22.7507 46.1167 21.6843L46.0335 19.9069C46.0335 19.4329 45.9337 18.7558 45.8838 18.2141V17.3508C45.8838 16.6399 45.7507 15.8104 45.7008 15.201L45.601 12.171C45.7008 11.9848 45.7507 12.171 46.3662 12.171C46.9818 12.171 47.4975 12.171 48.1463 12.171L47.9633 12.2048ZM47.1149 24.0541H47.5474C47.5474 24.4435 47.3145 24.782 47.6805 25.256C48.0443 25.6212 48.5336 25.8277 49.0447 25.8315C49.2443 25.8315 49.2443 25.8316 49.2443 26.0685C49.0065 26.0947 48.7667 26.0947 48.5289 26.0685C48.113 26.0685 46.0834 26.0685 45.5178 26.0685C45.3913 26.0447 45.2617 26.0447 45.1352 26.0685V25.8824C45.7008 25.73 47.3145 25.8823 47.1149 24.0541ZM36.368 10.1904C36.368 10.766 36.6508 10.529 36.551 11.4769C36.4151 12.9219 36.4655 14.3787 36.7007 15.8104C36.8496 16.3596 37.143 16.8571 37.5492 17.2493C37.7399 17.4356 37.9664 17.5797 38.2146 17.6725C38.6804 17.9094 38.7304 17.774 38.9133 18.011C39.1758 18.2563 39.374 18.5643 39.4902 18.9072C39.6064 19.25 39.6368 19.6168 39.5788 19.9746C39.5788 20.7025 39.4789 21.4642 38.8135 21.8028C38.4475 21.989 37.649 21.9382 37.3662 22.226C37.2867 22.3787 37.2359 22.5452 37.2164 22.7169C37.2164 23.377 38.0649 23.0554 38.9633 23.0554C39.2461 23.0554 39.3459 23.0554 39.6619 23.0554C39.978 23.0554 40.5603 23.0554 41.1259 23.0554C41.8515 23.1072 42.5797 23.1072 43.3052 23.0554C43.3791 22.9904 43.4334 22.9054 43.4616 22.8103C43.4899 22.7151 43.491 22.6138 43.4648 22.518C43.4387 22.4222 43.3864 22.336 43.314 22.2693C43.2415 22.2026 43.1519 22.1582 43.0557 22.1413C42.174 21.9551 41.6915 22.1413 41.3921 21.4812C41.0216 20.4642 41.0575 19.34 41.4919 18.3495C42.0076 17.8248 43.2886 18.2649 43.9873 16.1998C44.2182 15.2597 44.2857 14.2858 44.1869 13.322C44.1869 12.6957 44.0871 11.3923 44.1869 11.0537C44.2701 10.292 44.4697 10.1566 43.7045 9.47948C42.5233 8.37919 39.5122 8.42997 37.9152 8.95473C37.3496 9.14093 36.4013 9.53023 36.4013 10.3428L36.368 10.1904ZM36.7839 10.292C36.8031 10.4114 36.855 10.5229 36.9337 10.6136H37.4494C38.9632 10.6136 38.5307 12.3064 38.6305 13.4574C38.7303 14.6085 39.3791 14.4562 39.5289 13.4574L39.6287 12.2556C39.6287 11.6293 39.6287 11.5277 39.8117 11.1553C39.8968 11.0187 40.0149 10.9066 40.1546 10.8295C40.2944 10.7525 40.4513 10.7131 40.6102 10.7152C41.6915 10.7152 41.8911 11.9171 42.4069 11.9171C42.9226 11.9171 42.9226 11.1553 43.2054 10.8675C43.4882 10.5797 43.771 10.766 43.8209 10.5798C43.8211 10.3337 43.739 10.0949 43.5881 9.90267C42.8504 9.26554 41.9104 8.92265 40.9429 8.93779H39.2793C38.8135 8.93779 36.8172 9.27632 36.8172 10.2412L36.7839 10.292ZM43.5881 11.4769H43.3052C43.3052 11.3923 43.4383 11.1045 43.5381 11.1045C43.638 11.1045 43.638 11.3923 43.5381 11.4769H43.5881ZM37.1665 11.0537C37.5991 11.0537 38.0649 11.0537 38.0649 11.6293C37.7676 11.6814 37.4638 11.6814 37.1665 11.6293C36.8837 11.6293 36.9336 11.003 37.1665 11.003V11.0537ZM40.0945 11.6801C40.1417 11.544 40.203 11.4135 40.2775 11.2907C40.3627 11.2317 40.4594 11.1921 40.5611 11.1746C40.6628 11.1572 40.7669 11.1623 40.8665 11.1896C40.966 11.2169 41.0586 11.2658 41.1378 11.333C41.217 11.4001 41.2811 11.4838 41.3255 11.5785L40.0945 11.6801ZM37.0335 12.0186H38.2645C38.2645 13.2036 38.0316 14.744 39.246 14.744C39.6786 14.744 39.9614 14.1176 40.0446 13.7452C40.1456 13.1869 40.1957 12.6202 40.1943 12.0525C40.5064 11.9799 40.8305 11.9799 41.1426 12.0525C41.2465 12.0279 41.3547 12.0279 41.4587 12.0525C41.9411 12.0525 41.9411 12.4757 42.4568 12.4757C42.9725 12.4757 42.9725 11.9001 43.638 11.9001C43.8709 11.9001 43.771 12.1879 43.771 12.4418C43.8214 13.2535 43.8214 14.0677 43.771 14.8794C43.771 17.0969 42.5399 17.8078 40.527 17.8078C39.246 17.8078 37.832 17.5201 37.3662 16.3182C36.9317 14.9759 36.8345 13.5443 37.0834 12.154L37.0335 12.0186ZM39.4291 18.011H41.0927C41.0927 18.248 40.893 18.4342 40.8431 18.6881C40.6858 19.4928 40.6858 20.321 40.8431 21.1257C41.2257 22.7168 42.9226 22.0905 43.1056 22.5137C42.6679 22.5393 42.2291 22.5393 41.7913 22.5137C41.3255 22.5137 40.893 22.5137 40.4771 22.5137H39.0132C38.5806 22.5137 38.1647 22.6153 37.6822 22.6153V22.4629C38.7802 22.226 39.5787 22.2767 39.8616 21.1257C40.0206 20.6657 40.085 20.1774 40.0506 19.6911C40.0163 19.2048 39.884 18.7308 39.6619 18.2988C39.5939 18.1794 39.516 18.0661 39.4291 17.9602V18.011ZM26.8855 13.3051C27.0704 14.9191 27.7856 16.4223 28.9151 17.5709C29.0436 17.6436 29.1566 17.7413 29.2478 17.8586C29.4784 18.0095 29.7006 18.1734 29.9133 18.3495C30.3791 18.6373 30.562 18.5865 30.562 19.0097C30.562 20.2116 29.5306 21.0749 30.3292 21.3627C30.9074 21.448 31.4919 21.482 32.0759 21.4642C32.3587 21.4642 32.5085 21.4642 32.8246 21.4642C33.1727 21.422 33.5245 21.422 33.8726 21.4642H35.3699C36.0353 21.3796 35.5196 20.5671 35.3699 20.2624C35.2058 19.7997 35.1104 19.3148 35.087 18.8235C35.087 18.1126 35.8523 14.507 35.8523 13.1697C35.885 12.4135 35.8178 11.6563 35.6527 10.9183C35.6527 10.7152 35.5196 10.4782 35.4697 10.292C35.4198 10.1058 35.5695 9.90265 35.3699 9.66566C34.6712 8.56537 33.0242 8.70077 31.8431 8.85312C31.4724 8.88051 31.1133 8.99652 30.795 9.19169C29.9133 9.61488 30.2792 9.90267 30.1462 10.529C30.0131 11.1553 30.1462 11.2061 29.5805 11.2907C28.5824 11.3923 28.1166 11.2907 27.4511 11.8662C27.0784 12.2888 26.8764 12.839 26.8855 13.4067V13.3051ZM30.7118 9.80111C30.7118 9.37792 32.2256 9.17475 32.7414 9.17475C33.409 9.08992 34.0858 9.22648 34.6711 9.5641C34.8042 9.5641 35.1869 9.90267 34.8043 9.95345H33.1407C32.6249 9.95345 31.6434 9.95345 31.0279 9.95345C30.8282 9.95345 30.7451 9.95346 30.7451 9.80111H30.7118ZM31.4604 10.4782H34.4383C34.6712 10.4782 34.771 10.4782 35.0039 10.4782C35.1982 10.8958 35.295 11.3535 35.2867 11.8155H30.4789C30.4529 11.4492 30.4529 11.0815 30.4789 10.7152C30.5787 10.292 30.7118 10.529 31.3772 10.529L31.4604 10.4782ZM27.9336 13.6944C27.9336 12.2556 28.6822 12.2048 29.5972 12.2048C29.9632 12.2048 30.0131 11.917 29.9133 11.5277C29.6804 11.5277 28.0833 11.6801 27.9336 11.7308C27.7839 11.7816 27.5676 12.1541 27.5177 12.3403C27.3769 12.7654 27.3206 13.2148 27.352 13.6624C27.3834 14.1099 27.5019 14.5466 27.7007 14.9471C28.2247 16.3437 29.2298 17.4988 30.5288 18.1972C30.5288 16.9615 30.5288 17.1985 30.1961 17.1985C29.4973 17.0969 28.5325 15.8443 28.2663 15.1333C28.0436 14.6862 27.9187 14.1953 27.9003 13.6944H27.9336ZM34.6711 18.2988C34.689 17.7809 34.7503 17.2656 34.8542 16.7583C34.9616 16.2671 35.0394 15.7696 35.087 15.2687C35.1869 14.7439 35.2368 14.27 35.2867 13.7452C35.2867 13.4913 35.2867 13.2036 35.2867 12.9158C35.3698 12.154 35.2867 12.628 35.2867 12.2048C34.8198 12.1113 34.3395 12.1113 33.8726 12.2048H30.8948C30.795 12.2048 30.7118 12.2048 30.612 12.2048C30.5121 12.2048 30.612 12.2048 30.429 12.2048C30.341 12.5181 30.3072 12.8446 30.3292 13.1697C30.3292 15.1841 31.2275 16.8599 30.9447 19.0266C30.795 20.1777 30.5121 19.7884 31.3273 19.89C32.1425 19.9915 33.673 19.89 34.7544 19.89C34.7544 19.6022 34.6212 19.4499 34.6212 19.1621L34.6711 18.2988ZM29.9465 12.8819C29.9531 13.5293 30.0143 14.1749 30.1295 14.8117C30.2911 15.4075 30.4189 16.0122 30.5121 16.6229C29.697 16.6229 28.3827 14.9301 28.3827 13.4067C28.3827 12.4079 28.9983 12.5434 29.8467 12.5434C30.0796 12.5434 29.9465 12.7465 29.9465 12.8819ZM31.6101 20.9056H30.4789C30.5196 20.7669 30.5813 20.6356 30.6619 20.5163C30.7088 20.3665 30.7759 20.224 30.8615 20.0931C31.8443 20.2071 32.8337 20.2523 33.8227 20.2285C34.077 20.2004 34.3336 20.2004 34.588 20.2285C34.8209 20.2285 34.954 20.1439 35.1536 20.3809C35.2848 20.5257 35.3664 20.7098 35.3865 20.9056C34.9321 20.9311 34.4767 20.9311 34.0224 20.9056C33.1739 20.9056 32.4586 21.0072 31.6101 21.0072V20.9056ZM57.8284 9.81801C57.8284 10.4443 57.9283 10.2074 57.9782 10.529C58.0613 11.3923 58.1611 17.1985 58.1112 17.8248C57.9282 19.8392 56.9301 20.9903 59.2425 20.9903C60.7064 20.9903 63.3017 20.9903 64.6159 20.9056C64.6977 20.9015 64.7777 20.8804 64.8511 20.8436C64.9245 20.8068 64.9898 20.7551 65.0428 20.6916C65.0958 20.6282 65.1354 20.5543 65.1593 20.4747C65.1832 20.395 65.1907 20.3112 65.1815 20.2285C65.1815 19.9407 64.9986 19.7546 64.9487 19.2129C65.0984 19.2129 65.0983 19.1282 65.2314 19.0774C65.2314 18.3495 64.8488 18.1633 66.0799 17.7401C67.3109 17.3169 67.261 16.7245 67.4107 15.8104C67.6436 14.5239 67.8766 12.0694 66.2296 11.7308C65.7472 11.7308 64.6658 12.1202 64.6658 11.3584V10.4105C64.6658 10.2243 65.4145 9.78415 64.4329 9.07318C63.8661 8.74636 63.2358 8.54991 62.5863 8.49765C62.2042 8.39877 61.8039 8.39877 61.4218 8.49765C60.9893 8.49765 60.7065 8.49765 60.2739 8.49765C59.5995 8.57907 58.9454 8.78564 58.3442 9.10707C58.2121 9.18387 58.0977 9.28858 58.0087 9.41413C57.9198 9.53969 57.8583 9.68318 57.8284 9.83495V9.81801ZM63.0189 12.7465C63.0189 11.8324 63.2019 10.1058 61.7878 10.1058C61.0891 10.1058 60.4735 9.95342 60.2406 10.4951C60.1408 10.7321 60.041 11.0707 59.7083 11.0707C59.3756 11.0707 59.3423 10.6305 59.1427 10.3935C58.943 10.1566 58.2943 10.292 58.2943 9.86879C58.2943 9.4456 59.2924 9.14091 59.675 9.09013C61.0987 8.73882 62.593 8.82721 63.9671 9.34403C65.1317 9.95343 63.9671 10.1058 63.8174 10.2074C63.3016 10.529 63.3516 11.3077 63.3516 11.9001C63.3516 12.0863 63.3516 12.5095 63.2517 12.6618C63.1519 12.8142 63.2518 12.6618 63.0189 12.6618V12.7465ZM58.577 10.529C58.394 10.529 58.577 10.6305 58.577 11.1045V13.2205C58.577 14.0838 58.577 16.0982 58.577 17.1985C58.577 19.7038 57.4791 20.0762 58.577 20.4147C59.0096 20.5163 60.041 20.5163 60.3738 20.5671C60.9883 20.6183 61.6058 20.6183 62.2203 20.5671H63.1519C64.9985 20.5671 64.7157 20.3301 64.5327 19.5514C64.4439 19.3565 64.377 19.1521 64.3331 18.942C64.1501 18.942 64.1501 19.0266 63.7675 19.1282C62.1185 19.6348 60.3449 19.5145 58.7767 18.7897C58.6269 18.6881 58.5937 18.6881 58.5937 18.5527C58.7979 18.5984 58.9981 18.6607 59.1926 18.7389C60.8705 19.1545 62.6219 19.1545 64.2998 18.7389C64.2998 18.4003 64.2998 18.2141 64.2998 17.8756C64.2998 16.7245 64.383 12.5603 64.2998 12.0186C64.017 12.0186 63.9172 12.0186 63.9172 12.2218C63.9172 12.4249 63.9172 12.5603 63.9172 12.7973C63.8924 12.9234 63.829 13.0384 63.7361 13.1256C63.6432 13.2129 63.5255 13.268 63.3999 13.283C63.2743 13.298 63.1473 13.2722 63.037 13.2093C62.9268 13.1464 62.8388 13.0495 62.7859 12.9327C62.7683 12.6621 62.7683 12.3907 62.7859 12.1202C62.2536 11.9848 61.4551 12.1202 60.8396 12.0186H59.9079C59.5754 12.0356 59.2423 12.0356 58.9098 12.0186V11.9171C59.4255 11.9171 59.8081 11.9171 60.3238 11.9171H62.1704C62.5031 11.9171 63.0688 12.2048 62.736 11.1045C62.669 11.0002 62.591 10.9036 62.5032 10.8167C62.2536 10.6644 61.0392 10.4782 60.8396 10.8167C60.7564 10.9522 60.8395 11.0537 60.6565 11.1891C60.4735 11.3246 59.7083 11.8662 59.3423 11.1891C59.1427 10.9014 59.1926 10.6136 58.8599 10.6136L58.577 10.529ZM64.1501 11.6801C64.0102 11.7304 63.8575 11.7304 63.7176 11.6801C63.5845 11.1553 63.5346 10.4951 64.2 10.4951C64.2 10.7321 64.2 10.7829 64.2 11.0199V11.6801H64.1501ZM64.6658 13.6606C65.0984 13.6606 64.8156 13.4575 64.8987 13.1697C65.1316 12.5434 66.4126 12.7973 66.4126 13.4067C66.4126 15.3364 66.7453 17.1985 64.6658 17.1985V18.3157C64.6888 18.5231 64.7335 18.7273 64.7989 18.9251C64.8987 18.9251 64.7989 18.9251 64.7989 18.6881C64.6658 18.1126 64.7989 17.6894 65.3645 17.4862C65.9302 17.2831 66.1298 17.4016 66.4126 17.1138C67.0614 16.4367 66.9782 14.9979 66.9782 14.0838C66.9782 11.3585 65.847 12.6957 64.566 11.9678L64.6658 13.6606ZM65.1815 16.7245H64.7157C64.6642 15.8281 64.6642 14.9294 64.7157 14.033C65.2314 14.033 65.3312 13.8468 65.3312 13.322C66.2795 13.0851 66.03 14.033 66.03 15.0148C66.0379 15.4029 65.9931 15.7902 65.8969 16.1659C65.8593 16.3256 65.7761 16.4703 65.6576 16.5818C65.5392 16.6933 65.3908 16.7665 65.2314 16.7922L65.1815 16.7245ZM24.7228 15.0317V16.5722C24.7228 17.0461 24.7228 17.3847 24.7228 17.8078C23.5916 17.2323 24.2071 15.7088 23.9742 14.744C23.6914 14.6424 23.6914 14.744 23.5916 15.0825C23.5683 15.3528 23.5683 15.6247 23.5916 15.895C23.5916 16.2844 23.7413 16.5721 23.5916 16.9445C23.4418 17.3169 23.3088 17.2831 23.9243 17.9094L24.44 18.4342L26.1036 20.0254C27.0368 20.8912 28.0509 21.6623 29.1314 22.3275L29.7469 22.7507L30.3957 23.1908C31.7114 24.0242 33.0847 24.7597 34.5048 25.3914C36.0066 26.134 37.5859 26.7018 39.2128 27.0842C40.3939 27.3381 41.5252 27.6259 42.7563 27.8121C46.2043 28.2946 49.7042 28.2433 53.1371 27.6597C53.4535 27.6336 53.7661 27.5711 54.0687 27.4735C57.9522 26.5649 61.6213 24.8852 64.8654 22.5307L66.762 21.0918C67.2777 20.6686 67.7435 20.1777 68.2758 19.7545L68.5586 19.4668L69.1242 18.9251L69.4071 18.6373C69.5402 18.5019 69.5402 18.4511 69.6899 18.3157C69.8395 18.1043 70.0125 17.9111 70.2056 17.7401C70.8544 17.1984 70.7213 16.9107 70.8211 16.0474C70.8211 15.8612 71.0541 14.7609 70.7213 14.7609C70.3886 14.7609 70.4385 15.675 70.3387 16.2844C70.2389 16.8938 70.3387 17.4354 69.6899 17.4862V14.9979C69.6899 14.7101 69.6899 14.4223 69.4403 14.4223C69.1908 14.4223 69.3073 15.3364 69.3073 15.6242C69.3561 16.4808 69.2605 17.3396 69.0244 18.1633C68.9706 18.3166 68.8919 18.4597 68.7916 18.5865C68.7547 18.6764 68.6954 18.755 68.6196 18.8144C68.5437 18.8738 68.4539 18.9119 68.359 18.9251V16.3352V15.1333C68.3839 14.931 68.3839 14.7262 68.359 14.5239C68.359 14.27 68.4588 14.0838 68.176 14.0838C67.8932 14.0838 68.0263 14.4223 67.9764 14.6593C67.9265 14.8963 67.9764 15.1841 67.9764 15.4718L67.8765 18.5865C67.9319 18.9528 67.8677 19.3274 67.6936 19.653C67.6187 19.7257 67.5348 19.7884 67.444 19.8392C67.376 19.4416 67.376 19.0349 67.444 18.6373V18.011C67.4143 17.9372 67.3587 17.8773 67.288 17.8429C67.2173 17.8085 67.1365 17.802 67.0614 17.8248C66.9616 17.9771 67.0614 18.2649 67.0614 18.4511C67.0986 19.0844 67.0311 19.7195 66.8618 20.33C66.8211 20.4092 66.7619 20.4769 66.6893 20.5271C66.6168 20.5773 66.5331 20.6085 66.4459 20.6178C66.4212 20.3928 66.4212 20.1657 66.4459 19.9407V19.1621C66.421 18.9088 66.421 18.6536 66.4459 18.4003C66.4613 18.3534 66.4659 18.3034 66.4592 18.2543C66.4526 18.2052 66.4349 18.1584 66.4075 18.1174C66.3801 18.0765 66.3438 18.0425 66.3014 18.0182C66.259 17.9938 66.2117 17.9798 66.163 17.9771C66.0154 18.2696 65.9465 18.5967 65.9634 18.9251C65.9634 19.3144 65.9634 19.7037 65.9634 20.0254C65.9634 20.6178 66.0466 21.5658 65.2481 21.5658C65.115 21.5658 65.115 21.4811 64.9653 21.5658C64.8155 21.6504 64.9653 21.6674 64.8654 21.8028C64.7555 21.9692 64.59 22.0895 64.3996 22.1413C64.3996 22.0059 64.3997 21.7689 64.1668 21.8028C63.9339 21.8367 64.017 22.4799 63.7841 22.7169C63.6494 22.8322 63.4898 22.9134 63.3183 22.9539V22.3783C63.3183 22.1413 63.3183 22.0059 63.0854 22.0059C62.8525 22.0059 63.0854 23.0554 62.8026 23.2924C62.6534 23.409 62.4744 23.4795 62.2869 23.4956C62.2869 22.9539 62.37 22.0567 62.004 22.0567C61.6381 22.0567 62.1371 24.2065 61.2887 24.2065C61.0059 24.2065 61.139 23.4955 61.139 23.2416C61.139 22.9877 61.139 22.5814 61.139 22.1921C61.0392 22.1921 60.9893 22.0567 60.8895 22.0567C60.7896 22.0567 60.7064 22.4291 60.6565 22.7169C60.6565 23.5802 60.9893 24.6466 60.041 24.6805C59.9079 23.9695 60.1408 22.9877 60.041 22.1413C59.4255 22.0059 59.8081 22.6661 59.6584 23.8341C59.6321 24.1382 59.6321 24.4441 59.6584 24.7482C59.6584 24.9344 59.6584 24.9852 59.5253 25.0868L59.3756 25.1883H59.1926C59.0428 25.1883 59.1926 25.1883 59.0928 25.036C59.0646 24.9249 59.0646 24.8084 59.0928 24.6974C59.0928 24.2742 59.0928 23.9865 59.0928 23.5463C59.1177 23.084 59.1177 22.6206 59.0928 22.1583C59.0928 22.0228 58.9597 22.0228 58.81 22.0228C58.6602 22.0228 58.6269 22.5984 58.6269 22.8861V23.4109C58.6555 23.6016 58.6555 23.7957 58.6269 23.9864C58.6269 24.6127 58.9098 25.6792 58.0114 25.6792V24.6636C58.0114 24.325 58.0114 24.088 58.0114 23.7156C57.3626 23.5632 57.5955 24.6127 57.4957 25.4083C57.4957 25.7807 57.4957 25.9839 57.1131 25.9839C56.7304 25.9839 57.0299 25.256 57.0299 24.8328C57.0299 24.4096 57.163 23.7156 56.7471 23.7156C56.3312 23.7156 56.5974 24.1557 56.5974 24.3927V25.9331C56.5974 26.3563 56.2813 26.3563 55.9985 26.2717C55.9985 25.9839 56.0817 23.7156 55.749 23.7156C55.4162 23.7156 55.6158 24.2912 55.5659 24.5451C55.541 24.8605 55.541 25.1775 55.5659 25.493C55.5659 25.9331 55.7157 26.4579 55.2332 26.6102C54.7508 26.7626 54.7674 26.5087 54.8173 25.5946C54.8589 25.082 54.8589 24.5667 54.8173 24.0541C54.8173 23.8679 54.8173 23.7156 54.6842 23.7156C54.5511 23.7156 54.4513 24.0542 54.4513 24.3419C54.4459 24.6044 54.4124 24.8655 54.3515 25.1206V26.8134C53.7027 26.9996 53.8857 26.6272 53.8857 25.2222V24.3588C53.8857 24.1218 53.9855 23.5463 53.6528 23.7325C53.3201 23.9187 53.553 25.1375 53.5031 25.4253C53.4199 26.1362 53.6528 26.9995 53.1703 26.9995C52.6879 26.9995 52.8543 26.7118 52.8876 26.3732C52.9551 25.483 52.9551 24.5889 52.8876 23.6987H52.6047C52.5208 24.3325 52.4874 24.9722 52.5049 25.6115C52.3552 26.3733 52.7378 27.3043 51.9393 27.3043C51.7896 27.3043 51.7896 27.1181 51.7896 26.9657V24.5281C51.7896 24.2404 51.8894 23.6648 51.6565 23.6648C51.4236 23.6648 51.4236 24.2404 51.4236 24.4773C51.3986 24.8098 51.3986 25.1436 51.4236 25.4761C51.4236 25.73 51.4236 25.73 51.4236 25.967C51.3987 26.124 51.3987 26.284 51.4236 26.441C51.3981 26.6036 51.3981 26.7693 51.4236 26.9319C51.4236 27.3551 51.2406 27.3043 50.9079 27.3043C50.9684 26.9517 50.9339 26.589 50.8081 26.2547H50.5751C50.3921 27.118 50.7082 27.4566 49.9097 27.4566C49.6768 27.4566 49.8265 27.0673 49.7766 26.8811C49.7267 26.6949 49.7766 26.8811 49.6269 26.7795C49.211 26.5933 49.4938 27.5074 49.0113 27.5074C48.5289 27.5074 48.6787 27.2535 48.6787 26.8303C48.0798 26.441 48.2628 27.0165 48.113 27.5074C47.2313 27.5074 48.0298 27.0165 47.4642 26.6779C47.2313 26.881 47.2313 27.1181 47.2313 27.4566C47.1196 27.5108 46.9974 27.5389 46.8736 27.5389C46.7499 27.5389 46.6277 27.5108 46.516 27.4566C46.5348 27.3617 46.5348 27.2638 46.516 27.1688V27.0165C46.516 27.0165 46.516 26.6779 46.333 26.6779C46.15 26.6779 46.516 27.5074 45.5677 27.3043C45.5677 27.1181 45.5677 27.1181 45.5677 26.9319C45.5677 26.7457 45.5677 26.7795 45.3847 26.6779C45.2323 26.8736 45.1346 27.1076 45.1019 27.3551C44.9189 27.3551 44.7692 27.355 44.7692 27.118V24.4266C44.7692 24.0034 44.869 23.5125 44.4365 23.4617C44.3417 23.7562 44.3133 24.0686 44.3533 24.3758C44.2535 24.8667 44.3533 27.1689 44.2535 27.3043C43.588 27.4566 43.5881 26.9657 43.5881 26.4917C43.5881 25.5776 43.5881 24.799 43.5881 23.8002C43.5921 23.7373 43.5822 23.6742 43.5592 23.6156C43.5361 23.557 43.5005 23.5044 43.4549 23.4617C43.1222 23.6648 43.2054 23.851 43.1722 24.1896C43.1389 24.5282 43.1722 24.7651 43.1722 25.1037V26.0178V27.0673C43.0387 27.1124 42.8939 27.1083 42.7631 27.0557C42.6323 27.0031 42.5238 26.9053 42.4568 26.7795C42.4134 26.267 42.4134 25.7516 42.4568 25.2391C42.4568 24.8667 42.4568 23.7495 42.2072 23.5463C41.9743 23.6479 41.9744 23.9864 41.9744 24.2742C41.9744 24.562 41.9744 25.5099 41.9744 25.967C41.9744 26.424 42.0742 26.7964 41.6583 26.7964C41.5585 26.7964 41.4087 26.6441 41.3754 26.5933C41.3422 26.5425 41.2756 25.5438 41.2756 25.2052L41.1758 23.8172C41.1758 23.631 41.1758 23.4786 40.9928 23.4786C40.8098 23.4786 40.8098 23.9187 40.7599 24.1557C40.71 24.3927 40.7599 26.0178 40.6601 26.2209C40.5603 26.424 40.0446 26.5594 40.1444 25.7807C40.1444 25.5438 40.0446 24.088 39.9947 23.7664C39.9448 23.4448 39.9947 23.4786 39.7617 23.4786C39.5288 23.4786 39.5788 24.9682 39.5788 25.256C39.5788 26.4579 39.7618 26.2717 38.7802 26.0178V24.6805C38.7802 24.2403 38.9133 23.3771 38.4974 23.3771C38.0815 23.3771 38.3144 24.6805 38.3144 24.8667C38.3476 25.1874 38.3476 25.5108 38.3144 25.8315C38.0652 25.7914 37.8238 25.7114 37.5991 25.5946V23.9018C37.6115 23.8184 37.6009 23.7331 37.5686 23.6554C37.5363 23.5778 37.4835 23.5107 37.4161 23.4617C37.0833 23.5632 37.1832 23.9526 37.1832 24.3758V25.6454C36.9697 25.6164 36.762 25.5536 36.5677 25.4592L36.368 22.2429C36.368 22.0567 36.368 21.9044 36.1351 21.9044C35.9022 21.9044 36.0021 22.2937 36.0021 22.5815C35.9771 22.8856 35.9771 23.1914 36.0021 23.4956L36.0852 25.1883C35.9475 25.1976 35.8093 25.1768 35.6802 25.1271C35.551 25.0775 35.4339 25.0002 35.3366 24.9005C35.268 24.5485 35.268 24.1861 35.3366 23.8341C35.3366 23.2585 35.3366 22.7846 35.2534 22.2598C35.1702 21.7351 35.2534 21.8705 34.9706 21.8705C34.6878 21.8705 34.8708 22.92 34.8708 23.1739V24.6466C34.7694 24.6186 34.6737 24.5728 34.588 24.5112C34.1222 24.2742 34.1222 24.325 34.1222 23.6479C34.1556 23.0792 34.1052 22.5086 33.9725 21.9551C33.6397 21.9551 33.6397 22.0397 33.6397 22.7676V23.394C33.6397 23.631 33.6397 23.7325 33.6397 23.9188C33.4536 23.9096 33.2742 23.8448 33.124 23.7325C33.124 23.157 33.124 22.6661 33.124 22.1921C33.1263 22.1418 33.1184 22.0916 33.1011 22.0444C33.0837 21.9973 33.0571 21.9542 33.0229 21.9178C32.9887 21.8814 32.9476 21.8524 32.902 21.8327C32.8565 21.8129 32.8075 21.8027 32.758 21.8028C32.4253 21.8028 32.5584 22.0905 32.5584 22.2937C32.5584 22.4968 32.5584 22.8184 32.5584 23.157C32.5584 23.4955 32.5584 23.394 32.3754 23.3432C31.6267 23.1909 32.2756 21.8028 31.6268 21.8028C31.2941 21.8028 31.4272 22.5814 31.4272 22.7169C31.1443 22.7169 30.7284 22.3275 30.7284 22.0059C30.7284 21.6843 31.0112 21.4642 30.5288 21.4642C30.0464 21.4642 30.246 21.752 30.2127 21.9551C29.9878 21.8909 29.7894 21.7543 29.6471 21.5658C29.5715 21.0382 29.5715 20.5022 29.6471 19.9746C29.6471 19.2128 29.6471 18.0618 29.4142 17.9264C29.1813 17.7909 29.2645 17.9264 29.1314 17.9264C29.0802 18.9639 29.0802 20.0035 29.1314 21.041C28.9157 20.9544 28.7313 20.8023 28.6034 20.6055C28.4754 20.4087 28.41 20.1766 28.416 19.9407C28.4669 18.9822 28.4669 18.0216 28.416 17.063C28.416 16.8599 28.233 16.4875 28.05 16.4367C27.9983 17.3275 27.9983 18.2206 28.05 19.1113C28.0999 19.4139 28.0999 19.7228 28.05 20.0254C27.9449 19.9977 27.8477 19.9448 27.7667 19.8712C27.6857 19.7976 27.6231 19.7054 27.5842 19.6022C27.3846 19.2636 27.4844 19.2636 27.4844 18.8235C27.3479 17.6665 27.2868 16.5016 27.3014 15.3364V14.507C27.3014 14.27 27.3014 14.27 27.2016 14.1346C27.1018 13.9992 27.2016 13.9314 26.9188 13.9314C26.8018 15.2265 26.8018 16.5297 26.9188 17.8248C26.9887 18.2274 26.9543 18.6416 26.819 19.0266C26.6587 18.9658 26.5277 18.8446 26.453 18.6881C26.1202 18.248 26.2034 18.011 26.1535 17.4862C26.1036 16.9615 26.1535 15.9458 26.1535 15.2349C26.1535 14.9979 26.1535 13.8806 25.9539 13.8806C25.7543 13.8806 25.7709 14.1346 25.7709 14.3715C25.744 14.5624 25.744 14.7562 25.7709 14.9471L24.7228 15.0317ZM11.414 4.51965C11.8943 7.19029 12.7165 9.78538 13.8595 12.2386C14.0425 12.7295 14.8577 14.3546 14.891 14.5916C15.6806 14.1844 16.4135 13.6721 17.0703 13.0681C17.0703 12.9666 17.1534 12.9666 17.3032 12.865C17.7191 12.4926 17.9686 12.0017 18.6174 11.8662C18.6174 12.0017 18.6174 11.9509 18.4344 12.1032C18.2514 12.2556 17.769 12.865 17.403 13.2035L16.7376 13.8298C15.9184 14.5901 15.0138 15.2492 14.0425 15.7935L12.9113 16.369C12.1627 16.6568 11.2477 16.7076 11.0314 17.0969C10.9171 17.2668 10.8535 17.4667 10.8484 17.6725C10.8465 18.2146 11.0287 18.7408 11.3641 19.1621L12.0129 20.3132C12.1128 20.5073 12.2419 20.6844 12.3956 20.8379L14.7579 23.851C14.891 24.0542 15.0407 24.1388 15.1738 24.3419C15.3069 24.5451 15.7394 24.9683 15.9889 25.2899C16.2385 25.6115 17.4862 26.8811 17.6525 27.118C17.8189 27.355 18.2181 27.6936 18.6008 27.9814L19.3161 28.6077C19.3161 28.7093 19.4492 28.7092 19.549 28.7939C20.4961 29.6659 21.5023 30.4692 22.5601 31.1976C23.6082 31.9255 24.6396 32.6872 25.721 33.3643C26.4862 33.7875 27.185 34.2785 27.9336 34.6509L28.5491 34.9894C29.5474 35.513 30.5751 35.9765 31.6268 36.3775C36.3957 38.2567 41.4685 39.2099 46.5825 39.1875C50.9493 39.2072 55.2928 38.5391 59.4587 37.2069C60.3571 36.9191 61.3053 36.6314 62.1538 36.2928C62.6196 36.1066 63.0022 35.9712 63.4181 35.7681C63.8417 35.6071 64.2532 35.4148 64.6492 35.1926C65.6307 34.7186 66.7287 34.2446 67.6603 33.669C68.96 32.8995 70.2204 32.0634 71.4367 31.1638L72.4681 30.402C72.6175 30.2429 72.7788 30.0957 72.9506 29.9619C74.464 28.7869 75.8825 27.4907 77.1927 26.0855C77.3167 25.9096 77.4559 25.7453 77.6086 25.5946L81.3018 21.1934C81.6931 20.6606 82.0382 20.0942 82.3332 19.5006C82.7491 18.8404 83.5976 17.9263 83.032 17.0122C82.799 16.6229 82.2334 16.5721 81.8674 16.4367C81.2094 16.3061 80.5825 16.0475 80.0208 15.675C79.6382 15.421 79.3221 15.2348 78.9894 14.9979C77.7498 14.2069 76.6291 13.2377 75.6622 12.1202C75.5224 11.985 75.3943 11.8378 75.2796 11.6801C75.6622 11.6801 76.0448 12.1202 76.2777 12.3064C76.8215 12.883 77.4237 13.3994 78.0744 13.8468C78.2075 13.9314 78.3572 14.0838 78.5402 14.1854C78.6805 14.3044 78.8375 14.4014 79.006 14.4731C79.7809 12.9503 80.4588 11.3784 81.0356 9.76722C81.3764 8.94705 81.6437 8.09721 81.8342 7.22808C82.1979 6.32043 82.4223 5.36129 82.4996 4.38425C82.0338 4.38425 81.3683 4.95977 80.9857 5.16291C80.2828 5.66226 79.5006 6.03448 78.6733 6.26319L77.0097 6.88956C76.7377 7.01575 76.4533 7.11218 76.1613 7.1773C76.1454 6.8485 76.0838 6.52363 75.9783 6.21241L74.847 3.8595C74.7472 3.62251 74.6142 3.3855 74.4644 3.09773L74.0818 2.33602C73.7834 1.86648 73.5326 1.36738 73.3331 0.846382C73.2001 0.93102 73.2001 1.03259 73.2001 1.21879C72.6818 4.08926 71.8098 6.88178 70.6049 9.53026C70.3634 9.94009 70.1574 10.3705 69.9893 10.8167C69.7533 11.24 69.5795 11.6963 69.4736 12.171C69.4736 13.0681 72.9006 11.7308 73.2001 11.6801C74.0485 11.4431 75.4626 11.0199 75.4626 12.6957C75.4536 12.9796 75.3798 13.2573 75.2469 13.5071C75.1141 13.7568 74.9259 13.9717 74.6973 14.1346C74.0446 14.9223 73.4443 15.7537 72.9006 16.6229L71.969 17.774C71.5864 18.2649 70.9209 18.8743 70.6381 19.2637C70.3553 19.653 69.6566 20.2285 69.2241 20.7025C68.7915 21.1764 68.1926 21.6166 67.7268 22.0567C66.1565 23.3215 64.4874 24.4538 62.736 25.4422L61.2887 26.1532C60.1714 26.7199 59.0214 27.2173 57.8451 27.6428C56.0164 28.3031 54.1351 28.8015 52.2221 29.1324C46.3356 30.1351 40.2926 29.5155 34.721 27.3381C32.1999 26.2784 29.8101 24.9205 27.6008 23.2924C27.3469 23.0732 27.0802 22.8697 26.8023 22.683L24.5731 20.7532L24.2071 20.3809C23.8332 20.0513 23.483 19.6949 23.1591 19.3144L20.8633 16.6737C20.7796 16.5416 20.685 16.417 20.5805 16.3013C20.3808 16.0135 20.2477 15.7258 20.0481 15.438C19.7103 14.859 19.2835 14.339 18.7838 13.8976C18.1683 13.1697 18.4511 11.5954 19.2995 11.5954C20.8633 11.5954 22.6267 12.6449 23.6914 12.6449C24.0075 12.6449 24.3901 12.6449 24.3901 12.2556C24.1987 11.5373 23.9133 10.8484 23.5417 10.2074C22.8176 8.68718 22.2059 7.1142 21.7117 5.50148C21.5568 5.01262 21.4291 4.51528 21.3291 4.01184C21.031 3.00351 20.8085 1.9736 20.6637 0.930999L20.4307 1.32035C19.4492 3.14854 19.2496 3.62251 18.3013 5.55226C17.9835 6.06285 17.7896 6.6431 17.7357 7.24502C17.1653 7.09009 16.6087 6.8862 16.0721 6.6356C15.5312 6.40514 14.9754 6.21284 14.4085 6.06007C13.8888 5.81309 13.3834 5.53617 12.8946 5.23063C12.7942 5.14501 12.6887 5.06584 12.5786 4.99362C12.4537 4.93708 12.3408 4.85665 12.2458 4.75666C12.0032 4.60323 11.7308 4.50504 11.4473 4.46887L11.414 4.51965ZM71.1538 12.9835C71.3169 13.0583 71.4913 13.1041 71.6696 13.1189C72.5679 13.1189 74.0319 12.171 74.7805 12.1202C74.7805 11.9678 74.7805 11.934 74.5476 11.934C73.6848 12.1142 72.8346 12.3517 72.0023 12.6449C71.7364 12.7769 71.4487 12.8573 71.1538 12.8819V12.9835ZM19.5823 12.0694C20.174 12.174 20.7578 12.321 21.3291 12.5095C21.9037 12.6351 22.4619 12.8283 22.9927 13.085C22.8448 13.1531 22.6878 13.1987 22.5269 13.2205C21.3457 13.2205 20.2644 12.2218 19.1997 12.2218C19.1997 12.1202 19.3993 12.0694 19.5823 12.0694ZM72.6345 13.559C73.1029 13.4855 73.5541 13.3248 73.9653 13.085C75.0467 12.6449 75.1798 12.8819 75.1798 12.4079C74.1982 12.4079 73.2001 13.322 72.0189 13.322C72.0984 13.4047 72.1947 13.4687 72.301 13.5096C72.4073 13.5505 72.5211 13.5674 72.6345 13.559ZM19.0167 12.6957C19.0167 12.9327 19.1997 12.8311 19.6322 12.9835L20.2478 13.2205C20.9964 13.559 21.4289 13.8468 21.9114 13.6098C21.9727 13.5938 22.0298 13.5642 22.0787 13.5233C22.1275 13.4824 22.1669 13.431 22.1942 13.3728C20.7801 13.3728 19.0832 12.0186 19.0832 12.6957H19.0167ZM73.5328 14.1854C73.25 14.1854 73.1502 13.9484 72.9172 13.8976C73.0171 13.7452 73.0171 13.8976 73.433 13.6944L73.9653 13.4574C74.3131 13.3062 74.6755 13.1927 75.0467 13.1189C74.7139 13.6606 74.8138 13.5082 74.3812 13.7452C73.9487 13.9822 73.9155 14.1854 73.5328 14.1854ZM19.2496 13.322C19.7653 13.322 20.2478 13.796 21.1794 13.9991C21.1794 13.9991 21.1794 13.9992 21.0962 14.0838L20.6637 14.3377C20.4807 14.3377 19.6821 13.9484 19.5324 13.796C19.397 13.6805 19.2692 13.5561 19.1498 13.4236L19.2496 13.322Z" fill="#454545"/>
</svg>
